<svg version="1.1" id="Layer_1" xmlns="http://www.w3.org/2000/svg" xmlns:xlink="http://www.w3.org/1999/xlink" x="0px" y="0px"
	 width="100%" viewBox="0 0 804 792" enable-background="new 0 0 804 792" xml:space="preserve">
<path fill="#FCFDFE" opacity="1.000000" stroke="none" 
	d="
M1.000000,792.000000 
	C1.000000,528.402588 1.000000,264.805145 1.000000,1.000000 
	C265.027985,1.000000 529.056030,1.000000 793.542053,1.461255 
	C794.000000,265.615021 794.000000,529.307495 794.000000,793.000000 
	C530.305298,793.000000 266.610596,793.000000 2.349897,792.780640 
	C1.586094,792.285461 1.324798,792.098389 1.000000,792.000000 
M537.908691,512.696899 
	C537.835693,513.431641 537.762695,514.166443 537.061707,515.085449 
	C535.949280,516.668518 535.049194,518.469604 533.687134,519.796448 
	C528.168701,525.172302 522.508179,530.402344 516.175537,535.847534 
	C515.436157,535.832703 514.696716,535.817871 513.484802,535.301392 
	C508.272644,532.732666 502.052643,531.227966 498.022858,527.410950 
	C480.629150,510.935455 463.946564,493.711731 446.834778,476.934082 
	C443.264923,473.433960 439.305695,470.030304 434.919586,467.746735 
	C430.412048,465.399963 424.878601,465.058014 420.296112,462.813721 
	C410.581329,458.055878 404.371185,450.372192 402.870300,439.257629 
	C402.647980,437.611267 401.300781,435.112091 400.018982,434.783722 
	C393.746124,433.176666 387.120026,432.885742 382.168640,437.744568 
	C372.874908,446.864532 372.818054,460.129547 382.282715,469.477081 
	C394.559937,481.602295 407.000183,493.562836 419.236511,505.728790 
	C427.570709,514.015137 435.600403,522.607178 443.904419,530.924561 
	C452.234528,539.268005 460.967957,547.219360 469.098633,555.748657 
	C477.597351,564.664062 488.030090,570.345032 499.694550,572.658142 
	C507.789490,574.263306 516.473450,573.178284 524.865112,572.738831 
	C526.309814,572.663208 528.542419,569.946838 528.815430,568.200867 
	C530.101929,559.972656 533.708862,552.570435 538.522705,546.305481 
	C546.613953,535.775208 557.665466,529.177185 571.039001,526.832764 
	C572.466064,526.582581 574.643738,524.735046 574.707153,523.535156 
	C575.134155,515.460266 576.252625,507.150452 574.849426,499.328857 
	C573.528503,491.964874 568.883545,485.263428 566.617615,477.985138 
	C564.027100,469.664429 558.174377,467.147827 550.476624,467.090179 
	C537.486389,466.992889 524.493469,466.974640 511.505554,467.173828 
	C509.576569,467.203400 507.668549,468.600983 505.235138,469.571320 
	C508.508820,473.663696 510.677917,477.149719 513.575134,479.856323 
	C523.543030,489.168610 533.628967,498.311890 537.908691,512.696899 
M418.336945,541.538269 
	C418.278748,549.036621 418.500763,556.549927 418.100006,564.029907 
	C417.413635,576.841370 402.896637,587.282898 390.310547,585.118958 
	C379.649078,583.285767 369.183807,572.676758 369.473877,559.624084 
	C370.029114,534.637451 369.722687,509.628998 369.513611,484.631775 
	C369.490784,481.903259 368.365387,478.739349 366.726593,476.541443 
	C356.367004,462.646912 355.466156,446.606506 365.292450,432.438263 
	C367.968475,428.579834 367.148010,426.274048 364.487762,423.455963 
	C359.913757,418.610596 351.698700,416.612610 345.652313,418.951813 
	C337.407410,422.141571 333.374786,428.028412 333.371948,437.543945 
	C333.359497,479.209015 333.230865,520.875732 333.565186,562.538391 
	C333.720398,581.887573 342.288544,597.388977 357.427826,609.365784 
	C360.338165,611.668213 362.601898,611.559753 365.833893,609.559082 
	C384.402954,598.064148 403.274261,598.063721 421.863129,609.431702 
	C425.566559,611.696533 427.964996,611.422546 431.094116,608.941101 
	C442.933258,599.552429 450.316132,587.431702 453.592255,572.780945 
	C454.726471,567.708618 454.141296,563.357239 449.733276,559.331970 
	C440.758636,551.136597 432.423737,542.242126 423.779388,533.682007 
	C422.471832,532.387207 420.917633,531.341370 418.333527,529.258179 
	C418.333527,534.027405 418.333527,537.292114 418.336945,541.538269 
M383.789612,163.767868 
	C387.721619,164.340759 391.715637,165.667862 395.574402,165.350357 
	C409.176483,164.231216 419.737183,157.699860 425.316864,145.083298 
	C430.927246,132.397186 429.372681,120.082878 420.608276,109.001801 
	C411.963928,98.072395 397.097626,93.847160 382.792908,98.221077 
	C370.535126,101.969116 361.294434,114.301979 359.796814,127.491066 
	C358.164429,141.866669 366.932800,158.197739 383.789612,163.767868 
M418.185425,677.687073 
	C421.376404,671.957458 426.188873,666.569153 427.478851,660.439453 
	C433.188324,633.308899 408.241516,613.197815 384.371063,620.012451 
	C366.547150,625.100952 354.853088,646.209778 361.101501,663.440002 
	C370.151672,688.396118 397.204132,695.448975 418.185425,677.687073 
M101.766785,377.266022 
	C91.285263,400.447266 106.797653,425.641052 132.234955,426.303131 
	C146.324585,426.669861 157.164978,420.051178 163.507263,407.761749 
	C169.841660,395.487610 169.141052,382.707123 160.500275,371.580963 
	C144.261139,350.670898 114.901184,353.353271 101.766785,377.266022 
M632.070435,417.447510 
	C642.855896,426.902130 655.048584,428.787109 668.296570,423.821625 
	C684.740112,417.658386 693.766541,398.238220 687.727478,381.034363 
	C681.405762,363.025299 665.105896,354.263672 646.808899,358.701141 
	C619.254028,365.383850 612.271545,399.447083 632.070435,417.447510 
M235.167358,599.655701 
	C240.300568,593.660950 243.402969,586.727356 243.781982,578.862122 
	C245.006424,553.453857 221.945679,536.123047 197.365936,544.374084 
	C184.213837,548.789062 176.840195,558.847351 175.275803,572.551025 
	C173.695251,586.396179 178.509171,598.018188 190.500961,605.445435 
	C205.777222,614.907043 221.400742,612.670837 235.167358,599.655701 
M188.592270,234.917603 
	C198.164062,241.526871 208.380844,243.765976 219.767578,240.178131 
	C233.418869,235.876740 241.029205,226.133331 243.520920,212.735886 
	C246.151474,198.591904 238.757202,184.254349 226.790131,177.569763 
	C211.223831,168.874680 191.181351,172.941254 181.735641,186.711166 
	C170.638855,202.888000 173.162384,222.009964 188.592270,234.917603 
M252.242462,444.741241 
	C244.942764,452.045288 237.417023,459.139160 230.390610,466.697266 
	C215.959564,482.220367 210.717804,500.620575 214.593353,521.442139 
	C214.909378,523.140076 217.198578,525.312561 218.959885,525.771423 
	C240.067322,531.269958 253.834793,544.046570 259.609039,565.316345 
	C260.083679,567.064758 262.404114,569.262573 264.158386,569.566040 
	C281.581268,572.579041 297.540985,568.728455 311.676422,558.112305 
	C313.563721,556.694824 315.401947,553.818970 315.453583,551.576843 
	C315.783447,537.260803 315.632996,522.932983 315.540283,508.609680 
	C315.533783,507.601471 314.954926,506.066345 314.219055,505.744781 
	C313.503387,505.432068 311.994141,506.101593 311.261505,506.793304 
	C305.237030,512.481140 299.052307,518.033203 293.421021,524.095276 
	C285.740936,532.363037 276.077026,534.721252 265.774689,531.090942 
	C250.646881,525.760315 244.515060,505.382721 258.315674,492.467743 
	C267.890533,483.507294 276.933044,473.977753 286.206665,464.695770 
	C294.781464,456.113281 303.486816,447.653870 311.822571,438.844849 
	C313.998810,436.545074 316.051880,433.259583 316.385803,430.231018 
	C318.139069,414.329834 332.839172,401.993561 346.345734,400.597748 
	C347.672180,400.460663 349.925171,398.903809 349.923859,398.008636 
	C349.915985,392.665771 350.935394,386.531342 348.706390,382.134583 
	C342.753296,370.391998 328.214661,368.883545 318.849792,378.207947 
	C296.778778,400.183685 274.772583,422.224426 252.242462,444.741241 
M365.484833,336.018555 
	C361.161652,330.308380 354.946198,329.548645 348.462280,329.547943 
	C307.799652,329.543549 267.136780,329.462585 226.474564,329.592346 
	C206.543167,329.655975 190.648560,338.266357 177.957306,353.368256 
	C174.389053,357.614258 173.296524,361.583649 177.446198,366.077881 
	C178.532211,367.254089 179.145447,368.917175 179.801834,370.432037 
	C186.902130,386.818542 186.274475,402.876465 177.258072,418.345734 
	C175.133347,421.991058 175.476654,424.660645 178.058777,427.752838 
	C188.366440,440.096619 200.952621,448.563385 217.161987,450.631561 
	C219.395020,450.916534 222.523849,449.981171 224.127609,448.448761 
	C234.004242,439.011169 243.585739,429.263367 253.189041,419.543274 
	C254.135849,418.584900 254.566833,417.116943 255.237244,415.885498 
	C253.748764,415.452332 252.265732,414.667786 250.770905,414.644592 
	C242.774445,414.520538 234.769897,414.769623 226.777786,414.545532 
	C213.515991,414.173676 202.757980,403.844635 202.473267,391.508453 
	C202.150925,377.542755 212.822769,366.541321 227.232513,366.451721 
	C251.729095,366.299347 276.228363,366.510498 300.723358,366.259521 
	C303.736298,366.228638 307.229980,364.967224 309.650330,363.145874 
	C324.266418,352.147064 340.576111,352.006042 355.328857,362.836090 
	C356.750366,363.879547 359.856812,364.044159 361.443726,363.211456 
	C370.403107,358.510284 372.279602,346.367920 365.484833,336.018555 
M358.091156,312.758026 
	C360.288940,313.506104 362.582642,314.050995 364.668793,315.035645 
	C377.032623,320.871429 385.333710,329.831329 386.361572,344.114807 
	C386.577972,347.122009 387.930237,348.479828 390.889679,349.003510 
	C399.382477,350.506317 407.845642,345.123047 410.670441,336.688721 
	C413.967865,326.843262 409.113556,320.070557 402.736511,313.694611 
	C374.453247,285.416199 346.381470,256.921936 317.805847,228.942154 
	C303.044037,214.488159 285.012726,208.673706 264.286163,212.085388 
	C261.426178,212.556168 260.492493,213.696793 260.022675,216.462860 
	C258.395142,226.045319 253.900986,234.293167 247.489563,241.544098 
	C239.821259,250.216537 230.189865,255.440201 218.941238,257.786591 
	C216.038467,258.392090 214.469101,259.603790 213.987854,262.930756 
	C211.670151,278.953491 214.742142,293.577087 223.855103,307.072937 
	C226.514282,311.011047 229.595520,312.651581 234.160309,312.605713 
	C245.800583,312.488678 257.443512,312.629852 269.083679,312.506531 
	C271.947296,312.476227 274.804413,311.829620 278.821838,311.319366 
	C276.593597,308.833588 275.184906,307.293091 273.810028,305.723022 
	C267.174652,298.145660 259.416992,291.263550 254.169922,282.821808 
	C245.095261,268.222046 257.418640,248.638824 274.774689,248.654800 
	C282.933929,248.662308 288.858246,253.116882 294.248138,258.467255 
	C310.213562,274.315552 326.283783,290.066772 341.884155,306.268890 
	C346.361755,310.919220 351.090057,312.995483 358.091156,312.758026 
M385.453522,181.542252 
	C379.001343,179.026749 372.344086,176.922760 366.171173,173.846786 
	C362.250580,171.893143 359.516815,172.126968 356.267151,174.790115 
	C344.916504,184.092072 337.502075,195.837051 333.996429,210.033554 
	C332.579803,215.770294 332.997955,220.738129 338.040131,225.312103 
	C347.163116,233.587952 355.571991,242.649170 364.331238,251.329773 
	C365.637512,252.624283 367.227753,253.632248 368.686615,254.772781 
	C369.164398,254.579590 369.642181,254.386414 370.119965,254.193222 
	C370.119965,249.445602 369.995819,244.694046 370.146240,239.951202 
	C370.443695,230.572815 368.479156,220.893143 373.014771,212.016815 
	C378.059814,202.143539 389.134216,197.588699 400.192383,200.110306 
	C408.124939,201.919220 417.992340,212.293900 417.742828,222.479156 
	C417.339264,238.955063 418.014832,255.454987 418.060028,271.945251 
	C418.084686,280.934631 417.456055,289.934082 417.732239,298.910217 
	C417.832520,302.169342 418.934204,305.975342 420.901917,308.501251 
	C430.407501,320.703339 431.498474,337.152222 423.094604,349.963654 
	C419.152252,355.973663 419.611786,359.278625 425.559143,363.155731 
	C431.471954,367.010406 437.818665,368.053802 444.515442,364.860291 
	C453.143799,360.745636 455.401581,353.170959 455.416840,344.582153 
	C455.486420,305.416840 455.378113,266.251190 455.446198,227.085861 
	C455.482025,206.475372 448.723785,189.044983 432.612305,175.568359 
	C428.786591,172.368286 425.817535,171.422791 421.192200,174.438721 
	C410.633270,181.323608 398.873688,183.705124 385.453522,181.542252 
M509.749054,307.268005 
	C502.535645,314.577942 495.375854,321.941833 488.093781,329.182739 
	C480.781128,336.454041 472.038666,342.284332 471.085938,354.342926 
	C469.884247,369.552734 455.737030,382.000580 440.300018,383.399780 
	C438.424408,383.569763 435.830566,385.582764 435.139465,387.354126 
	C432.228912,394.814178 438.018616,406.106537 445.584656,408.443237 
	C454.277008,411.127747 461.790741,409.442688 468.374054,402.825378 
	C497.390961,373.658630 526.728394,344.808075 555.540833,315.441803 
	C569.217712,301.502014 574.582397,284.337799 572.187866,264.740906 
	C571.641907,260.272888 570.101929,258.257690 565.696716,256.889984 
	C545.738037,250.693329 532.767639,237.775711 528.323669,216.835480 
	C527.938599,215.020782 525.280579,212.799896 523.316467,212.351181 
	C509.134827,209.111084 495.492218,211.771484 482.600098,217.805084 
	C477.554230,220.166611 472.044647,222.962128 472.171082,230.382141 
	C472.398071,243.703812 472.174255,257.032745 472.298523,270.357178 
	C472.311859,271.787933 473.382874,273.208832 473.963257,274.634277 
	C475.401733,274.036438 477.170654,273.785400 478.223267,272.782562 
	C483.648651,267.613647 489.167694,262.497955 494.132812,256.901276 
	C502.056641,247.969452 515.236084,246.135071 525.749084,254.162735 
	C535.799438,261.837128 537.883484,279.703339 528.517578,288.422272 
	C522.205444,294.298340 516.298096,300.609222 509.749054,307.268005 
M595.704590,339.857727 
	C587.596497,336.585510 579.523926,333.221008 571.363586,330.084747 
	C567.914307,328.759125 565.005859,329.925171 562.371704,332.605103 
	C552.680969,342.464447 542.838867,352.175049 533.076416,361.964233 
	C532.183228,362.859894 531.452026,363.916992 530.033142,365.645020 
	C532.675964,366.023956 534.545044,366.505066 536.418762,366.523773 
	C544.580139,366.605225 552.745667,366.411743 560.904358,366.579834 
	C574.153259,366.852783 585.199463,377.507996 585.424438,390.003693 
	C585.669495,403.612610 574.873718,414.390137 560.671204,414.453064 
	C539.349792,414.547546 518.025696,414.649689 496.706696,414.402985 
	C487.456390,414.295959 479.333374,414.897369 471.319824,421.439636 
	C460.581665,430.206329 444.227356,428.591553 432.750336,420.067413 
	C427.759918,416.360992 425.668854,416.613770 422.080109,421.592499 
	C417.572540,427.845947 416.140137,434.340759 420.043182,441.610291 
	C423.769409,448.550476 429.625336,451.709839 437.125000,451.725983 
	C479.268799,451.816772 521.416260,452.064484 563.555481,451.613342 
	C583.186035,451.403198 598.915344,442.365234 610.879822,426.820679 
	C612.802124,424.323090 613.026855,421.988556 611.351624,419.036041 
	C609.150818,415.157043 607.080688,411.052673 605.879883,406.784821 
	C601.663086,391.798035 603.239929,377.453888 611.928894,364.252045 
	C613.929749,361.211914 614.315063,358.374420 611.690063,355.686615 
	C606.616516,350.491760 601.423279,345.413757 595.704590,339.857727 
M604.312927,600.797302 
	C617.845703,586.852600 616.957764,564.543091 602.301636,550.265747 
	C589.503418,537.798340 565.883423,538.414001 553.074585,552.010559 
	C539.646545,566.264526 540.694214,589.296631 553.972229,602.013916 
	C567.904053,615.357422 590.389771,615.116821 604.312927,600.797302 
M578.546875,171.041351 
	C571.563049,172.696289 563.829956,172.995377 557.779236,176.338943 
	C549.660156,180.825424 544.564819,189.275497 543.362000,198.469910 
	C541.397644,213.485153 542.968811,228.235916 559.777344,238.264069 
	C573.948059,246.718460 594.870483,244.392746 605.646667,232.172333 
	C615.296997,221.228775 617.971313,208.512512 612.902405,194.549698 
	C608.294495,181.856781 593.848206,169.921204 578.546875,171.041351 
z"/>
<path fill="#F7F7F7" opacity="1.000000" stroke="none" 
	d="
M794.469543,793.000000 
	C794.000000,529.307495 794.000000,265.615021 794.000000,1.461255 
	C797.664673,1.000000 801.329407,1.000000 804.966858,1.000000 
	C804.966858,265.000000 804.966858,529.000000 804.966858,793.000000 
	C801.602173,793.000000 798.270630,793.000000 794.469543,793.000000 
z"/>
<path fill="#F7F7F7" opacity="1.000000" stroke="none" 
	d="
M1.000000,792.500000 
	C1.324798,792.098389 1.586094,792.285461 1.891944,792.780640 
	C1.666667,793.000000 1.333333,793.000000 1.000000,792.500000 
z"/>
<path fill="#2B7ABA" opacity="1.000000" stroke="none" 
	d="
M418.335236,541.047546 
	C418.333527,537.292114 418.333527,534.027405 418.333527,529.258179 
	C420.917633,531.341370 422.471832,532.387207 423.779388,533.682007 
	C432.423737,542.242126 440.758636,551.136597 449.733276,559.331970 
	C454.141296,563.357239 454.726471,567.708618 453.592255,572.780945 
	C450.316132,587.431702 442.933258,599.552429 431.094116,608.941101 
	C427.964996,611.422546 425.566559,611.696533 421.863129,609.431702 
	C403.274261,598.063721 384.402954,598.064148 365.833893,609.559082 
	C362.601898,611.559753 360.338165,611.668213 357.427826,609.365784 
	C342.288544,597.388977 333.720398,581.887573 333.565186,562.538391 
	C333.230865,520.875732 333.359497,479.209015 333.371948,437.543945 
	C333.374786,428.028412 337.407410,422.141571 345.652313,418.951813 
	C351.698700,416.612610 359.913757,418.610596 364.487762,423.455963 
	C367.148010,426.274048 367.968475,428.579834 365.292450,432.438263 
	C355.466156,446.606506 356.367004,462.646912 366.726593,476.541443 
	C368.365387,478.739349 369.490784,481.903259 369.513611,484.631775 
	C369.722687,509.628998 370.029114,534.637451 369.473877,559.624084 
	C369.183807,572.676758 379.649078,583.285767 390.310547,585.118958 
	C402.896637,587.282898 417.413635,576.841370 418.100006,564.029907 
	C418.500763,556.549927 418.278748,549.036621 418.335236,541.047546 
z"/>
<path fill="#3BAFDE" opacity="1.000000" stroke="none" 
	d="
M537.689697,514.901184 
	C537.762695,514.166443 537.835693,513.431641 538.130127,512.101868 
	C538.459229,504.730743 536.316162,498.848633 531.464355,494.017914 
	C525.327698,487.907867 519.181946,481.806183 513.112000,475.630341 
	C511.825226,474.321167 510.848389,472.707336 509.709381,471.208282 
	C510.579559,470.610138 510.841614,470.272522 511.105133,470.271423 
	C525.402222,470.210480 539.702332,470.027527 553.993164,470.310638 
	C556.046204,470.351318 558.872070,472.174133 559.938354,473.993713 
	C564.028564,480.973572 568.721619,487.946594 570.941772,495.576263 
	C573.065186,502.873444 572.753845,510.985046 572.716919,518.734924 
	C572.706970,520.830200 570.154663,524.298340 568.185913,524.787231 
	C546.250854,530.234558 532.364197,543.548340 527.164185,565.602051 
	C526.438049,568.681641 525.044189,570.163330 522.004089,570.606262 
	C510.889191,572.225586 499.858704,571.464539 489.936920,566.325073 
	C482.533447,562.490112 475.306091,557.592224 469.368896,551.771667 
	C440.229248,523.204712 411.563629,494.154572 382.689362,465.316284 
	C377.309814,459.943420 376.573547,453.588257 379.000702,446.915588 
	C381.594604,439.784363 387.279480,436.447388 394.760437,435.975403 
	C398.098053,435.764801 399.603638,436.824097 400.302002,440.532776 
	C403.220184,456.029053 413.151123,466.201569 428.019165,469.133728 
	C436.485779,470.803436 441.660278,475.125671 447.035889,480.491821 
	C463.301697,496.728882 479.496429,513.037903 495.858002,529.177856 
	C500.781555,534.034668 506.559021,537.331970 513.957336,535.803040 
	C514.696716,535.817871 515.436157,535.832703 516.923096,535.886841 
	C521.300171,534.459229 525.431519,533.656860 528.448486,531.378784 
	C533.742798,527.381042 538.137695,522.360229 537.689697,514.901184 
z"/>
<path fill="#2B7ABA" opacity="1.000000" stroke="none" 
	d="
M383.406433,163.668213 
	C366.932800,158.197739 358.164429,141.866669 359.796814,127.491066 
	C361.294434,114.301979 370.535126,101.969116 382.792908,98.221077 
	C397.097626,93.847160 411.963928,98.072395 420.608276,109.001801 
	C429.372681,120.082878 430.927246,132.397186 425.316864,145.083298 
	C419.737183,157.699860 409.176483,164.231216 395.574402,165.350357 
	C391.715637,165.667862 387.721619,164.340759 383.406433,163.668213 
z"/>
<path fill="#2B79BA" opacity="1.000000" stroke="none" 
	d="
M417.934326,677.939209 
	C397.204132,695.448975 370.151672,688.396118 361.101501,663.440002 
	C354.853088,646.209778 366.547150,625.100952 384.371063,620.012451 
	C408.241516,613.197815 433.188324,633.308899 427.478851,660.439453 
	C426.188873,666.569153 421.376404,671.957458 417.934326,677.939209 
z"/>
<path fill="#2B79BA" opacity="1.000000" stroke="none" 
	d="
M101.905792,376.916565 
	C114.901184,353.353271 144.261139,350.670898 160.500275,371.580963 
	C169.141052,382.707123 169.841660,395.487610 163.507263,407.761749 
	C157.164978,420.051178 146.324585,426.669861 132.234955,426.303131 
	C106.797653,425.641052 91.285263,400.447266 101.905792,376.916565 
z"/>
<path fill="#2B79BA" opacity="1.000000" stroke="none" 
	d="
M631.825745,417.187256 
	C612.271545,399.447083 619.254028,365.383850 646.808899,358.701141 
	C665.105896,354.263672 681.405762,363.025299 687.727478,381.034363 
	C693.766541,398.238220 684.740112,417.658386 668.296570,423.821625 
	C655.048584,428.787109 642.855896,426.902130 631.825745,417.187256 
z"/>
<path fill="#3BAFDE" opacity="1.000000" stroke="none" 
	d="
M234.896988,599.885254 
	C221.400742,612.670837 205.777222,614.907043 190.500961,605.445435 
	C178.509171,598.018188 173.695251,586.396179 175.275803,572.551025 
	C176.840195,558.847351 184.213837,548.789062 197.365936,544.374084 
	C221.945679,536.123047 245.006424,553.453857 243.781982,578.862122 
	C243.402969,586.727356 240.300568,593.660950 234.896988,599.885254 
z"/>
<path fill="#3BAFDE" opacity="1.000000" stroke="none" 
	d="
M188.314484,234.687592 
	C173.162384,222.009964 170.638855,202.888000 181.735641,186.711166 
	C191.181351,172.941254 211.223831,168.874680 226.790131,177.569763 
	C238.757202,184.254349 246.151474,198.591904 243.520920,212.735886 
	C241.029205,226.133331 233.418869,235.876740 219.767578,240.178131 
	C208.380844,243.765976 198.164062,241.526871 188.314484,234.687592 
z"/>
<path fill="#61B7D8" opacity="1.000000" stroke="none" 
	d="
M252.491302,444.490051 
	C274.772583,422.224426 296.778778,400.183685 318.849792,378.207947 
	C328.214661,368.883545 342.753296,370.391998 348.706390,382.134583 
	C350.935394,386.531342 349.915985,392.665771 349.923859,398.008636 
	C349.925171,398.903809 347.672180,400.460663 346.345734,400.597748 
	C332.839172,401.993561 318.139069,414.329834 316.385803,430.231018 
	C316.051880,433.259583 313.998810,436.545074 311.822571,438.844849 
	C303.486816,447.653870 294.781464,456.113281 286.206665,464.695770 
	C276.933044,473.977753 267.890533,483.507294 258.315674,492.467743 
	C244.515060,505.382721 250.646881,525.760315 265.774689,531.090942 
	C276.077026,534.721252 285.740936,532.363037 293.421021,524.095276 
	C299.052307,518.033203 305.237030,512.481140 311.261505,506.793304 
	C311.994141,506.101593 313.503387,505.432068 314.219055,505.744781 
	C314.954926,506.066345 315.533783,507.601471 315.540283,508.609680 
	C315.632996,522.932983 315.783447,537.260803 315.453583,551.576843 
	C315.401947,553.818970 313.563721,556.694824 311.676422,558.112305 
	C297.540985,568.728455 281.581268,572.579041 264.158386,569.566040 
	C262.404114,569.262573 260.083679,567.064758 259.609039,565.316345 
	C253.834793,544.046570 240.067322,531.269958 218.959885,525.771423 
	C217.198578,525.312561 214.909378,523.140076 214.593353,521.442139 
	C210.717804,500.620575 215.959564,482.220367 230.390610,466.697266 
	C237.417023,459.139160 244.942764,452.045288 252.491302,444.490051 
M244.473114,457.982666 
	C237.180511,465.389465 228.498947,471.738556 225.852554,482.678223 
	C225.648773,483.520599 224.816940,484.415009 224.035797,484.879578 
	C219.924438,487.324524 218.944229,491.155853 218.951279,495.542572 
	C218.954742,497.693359 219.623611,500.595551 218.513367,501.864502 
	C213.893387,507.144653 216.056763,512.400940 217.811081,517.694763 
	C218.405411,519.488159 219.298203,521.739319 220.749817,522.578064 
	C223.927887,524.414429 227.441223,525.968323 231.012436,526.771118 
	C242.051575,529.252930 247.998215,538.253174 255.480209,545.287170 
	C256.525757,546.270142 257.287628,547.718262 257.782654,549.094238 
	C259.651917,554.290222 261.308929,559.562378 263.173004,564.760254 
	C263.466492,565.578613 264.417633,566.759338 265.067078,566.760864 
	C273.031921,566.779480 281.271118,567.821960 288.875702,566.104187 
	C294.949921,564.732178 300.242676,559.924561 305.904022,556.679810 
	C307.016052,556.042480 308.417328,555.796143 309.348511,554.983643 
	C310.724701,553.782776 312.737091,552.290527 312.821594,550.826660 
	C313.048187,546.900085 312.132568,542.921936 312.144257,538.965698 
	C312.169952,530.274353 312.492981,521.584045 312.655853,512.892578 
	C312.659760,512.684448 312.207550,512.467773 311.419617,511.768005 
	C309.855621,512.797974 307.904480,513.693359 306.463776,515.108398 
	C302.820984,518.686279 299.437500,522.526611 295.895721,526.209473 
	C289.733551,532.617004 282.482941,537.211975 273.349152,536.777100 
	C269.637177,536.600342 266.054138,534.242859 262.361298,533.033752 
	C253.468506,530.122009 249.631012,525.276855 249.014771,515.802429 
	C248.718994,511.255157 248.294708,506.686951 248.478745,502.150543 
	C248.565964,500.000946 249.438309,497.471069 250.820786,495.853424 
	C259.370148,485.849854 267.846619,475.748871 276.975098,466.285797 
	C285.119934,457.842468 294.223724,450.332245 302.607239,442.107422 
	C306.412292,438.374390 310.908997,434.376923 312.482361,429.633759 
	C313.832550,425.563416 315.094635,421.571167 316.793152,417.518311 
	C321.634857,405.965210 330.820190,400.701904 342.106079,398.066864 
	C347.598145,396.784576 350.620056,393.507660 348.467529,389.273071 
	C346.260986,384.932281 344.489868,379.897736 339.305695,377.859924 
	C334.938446,376.143280 330.115692,374.128448 326.107849,377.660065 
	C316.838745,385.827789 307.863861,394.344727 299.031891,402.988007 
	C292.680756,409.203522 286.814667,415.911652 280.612366,422.283356 
	C277.168304,425.821442 273.302795,428.956787 269.943115,432.567566 
	C265.615265,437.218933 261.843475,442.401733 257.382904,446.911285 
	C253.577057,450.759003 249.136276,453.978729 244.473114,457.982666 
z"/>
<path fill="#4D87B5" opacity="1.000000" stroke="none" 
	d="
M365.674988,336.326538 
	C372.279602,346.367920 370.403107,358.510284 361.443726,363.211456 
	C359.856812,364.044159 356.750366,363.879547 355.328857,362.836090 
	C340.576111,352.006042 324.266418,352.147064 309.650330,363.145874 
	C307.229980,364.967224 303.736298,366.228638 300.723358,366.259521 
	C276.228363,366.510498 251.729095,366.299347 227.232513,366.451721 
	C212.822769,366.541321 202.150925,377.542755 202.473267,391.508453 
	C202.757980,403.844635 213.515991,414.173676 226.777786,414.545532 
	C234.769897,414.769623 242.774445,414.520538 250.770905,414.644592 
	C252.265732,414.667786 253.748764,415.452332 255.237244,415.885498 
	C254.566833,417.116943 254.135849,418.584900 253.189041,419.543274 
	C243.585739,429.263367 234.004242,439.011169 224.127609,448.448761 
	C222.523849,449.981171 219.395020,450.916534 217.161987,450.631561 
	C200.952621,448.563385 188.366440,440.096619 178.058777,427.752838 
	C175.476654,424.660645 175.133347,421.991058 177.258072,418.345734 
	C186.274475,402.876465 186.902130,386.818542 179.801834,370.432037 
	C179.145447,368.917175 178.532211,367.254089 177.446198,366.077881 
	C173.296524,361.583649 174.389053,357.614258 177.957306,353.368256 
	C190.648560,338.266357 206.543167,329.655975 226.474564,329.592346 
	C267.136780,329.462585 307.799652,329.543549 348.462280,329.547943 
	C354.946198,329.548645 361.161652,330.308380 365.674988,336.326538 
M364.345398,353.395020 
	C367.653412,350.848358 367.096039,347.985291 364.723297,344.380859 
	C363.514496,342.566101 362.305695,340.751312 360.981934,338.233734 
	C357.991608,336.491058 355.001312,334.748413 351.072540,332.981140 
	C313.046173,332.983978 275.019806,332.986816 236.086823,332.977600 
	C233.059921,332.981781 230.033020,332.985962 226.087570,332.973907 
	C221.489655,333.454956 216.548401,333.029144 212.367661,334.612000 
	C204.460983,337.605591 196.977142,341.724487 189.359940,345.462036 
	C188.526474,345.870972 187.945358,346.822449 187.289429,347.559814 
	C185.024994,350.105469 182.988327,352.900055 180.472672,355.164001 
	C177.426300,357.905670 177.321106,360.459167 179.282715,363.907410 
	C181.744934,368.235687 184.869781,372.667572 185.635010,377.390717 
	C187.953873,391.703247 188.825165,406.072815 180.110840,419.128357 
	C179.352386,420.264679 179.918396,423.330109 180.978058,424.453064 
	C185.444702,429.186554 190.630310,433.252777 194.994431,438.069153 
	C201.310455,445.039734 210.234741,444.552399 218.142548,446.981537 
	C218.847382,447.198090 220.022736,447.046722 220.523758,446.578491 
	C224.453796,442.905975 228.279678,439.121643 232.121033,435.354797 
	C233.166702,434.329346 234.134506,433.224701 235.174408,432.193085 
	C239.725327,427.678467 244.294220,423.181915 248.824234,418.646484 
	C248.942352,418.528198 248.689362,418.039215 248.643311,417.857056 
	C243.543457,417.857056 238.489227,417.969391 233.442261,417.825745 
	C228.309280,417.679718 223.105682,416.617065 218.079376,417.205719 
	C214.122711,417.669098 211.889969,416.129425 209.489166,413.770233 
	C199.124649,403.585297 201.865723,389.897400 199.760132,379.041534 
	C202.388153,376.497894 204.737320,375.018066 205.961716,372.890839 
	C209.698578,366.398529 214.867722,362.970245 222.511932,363.002991 
	C246.009109,363.103607 269.507050,363.026306 293.891571,363.027100 
	C296.258545,363.019684 298.625549,363.012299 301.703827,362.952454 
	C303.016541,362.264679 304.535583,361.806854 305.604645,360.847534 
	C309.345367,357.491119 312.985535,354.534668 318.617279,354.702057 
	C320.735748,354.765045 322.928162,352.340637 325.977356,351.049286 
	C328.985535,351.043152 331.993683,351.037018 335.739227,351.122498 
	C339.842438,352.111176 343.945648,353.099884 348.764557,354.058533 
	C349.480896,354.056641 350.197205,354.054718 351.010437,354.755096 
	C355.685181,361.615631 357.787689,361.769196 362.925140,355.607483 
	C363.341095,355.108612 363.673370,354.540039 364.345398,353.395020 
z"/>
<path fill="#66BBDB" opacity="1.000000" stroke="none" 
	d="
M357.662109,312.722687 
	C351.090057,312.995483 346.361755,310.919220 341.884155,306.268890 
	C326.283783,290.066772 310.213562,274.315552 294.248138,258.467255 
	C288.858246,253.116882 282.933929,248.662308 274.774689,248.654800 
	C257.418640,248.638824 245.095261,268.222046 254.169922,282.821808 
	C259.416992,291.263550 267.174652,298.145660 273.810028,305.723022 
	C275.184906,307.293091 276.593597,308.833588 278.821838,311.319366 
	C274.804413,311.829620 271.947296,312.476227 269.083679,312.506531 
	C257.443512,312.629852 245.800583,312.488678 234.160309,312.605713 
	C229.595520,312.651581 226.514282,311.011047 223.855103,307.072937 
	C214.742142,293.577087 211.670151,278.953491 213.987854,262.930756 
	C214.469101,259.603790 216.038467,258.392090 218.941238,257.786591 
	C230.189865,255.440201 239.821259,250.216537 247.489563,241.544098 
	C253.900986,234.293167 258.395142,226.045319 260.022675,216.462860 
	C260.492493,213.696793 261.426178,212.556168 264.286163,212.085388 
	C285.012726,208.673706 303.044037,214.488159 317.805847,228.942154 
	C346.381470,256.921936 374.453247,285.416199 402.736511,313.694611 
	C409.113556,320.070557 413.967865,326.843262 410.670441,336.688721 
	C407.845642,345.123047 399.382477,350.506317 390.889679,349.003510 
	C387.930237,348.479828 386.577972,347.122009 386.361572,344.114807 
	C385.333710,329.831329 377.032623,320.871429 364.668793,315.035645 
	C362.582642,314.050995 360.288940,313.506104 357.662109,312.722687 
M219.098755,291.819458 
	C221.312592,294.747101 223.554291,297.654175 225.734055,300.606964 
	C229.512268,305.725128 231.894669,313.450806 240.957870,308.440369 
	C241.611069,308.079315 242.853394,308.960693 243.824387,308.969177 
	C250.499146,309.027710 257.186279,309.240997 263.844574,308.907990 
	C266.881317,308.756073 268.880554,306.824860 266.565369,303.578339 
	C264.873138,301.205383 263.077576,298.747955 260.825806,296.961121 
	C253.322556,291.007233 248.285873,283.542114 247.546616,273.988190 
	C247.186111,269.329193 248.631088,264.523438 249.345795,259.797272 
	C249.434479,259.210907 249.974243,258.612823 250.448944,258.176941 
	C256.345612,252.762344 260.880096,244.869675 270.915802,246.910110 
	C271.655243,247.060440 272.535400,246.381943 273.326996,246.434860 
	C277.748230,246.730438 282.838348,245.877106 286.414886,247.802872 
	C291.351166,250.460785 295.262787,255.120255 299.399017,259.142700 
	C305.904877,265.469635 312.260406,271.952393 318.627167,278.420746 
	C324.888428,284.781891 330.853333,291.454865 337.370911,297.538239 
	C344.583557,304.270355 352.244873,310.175354 362.845703,311.182678 
	C370.188416,311.880432 377.002808,315.810211 380.969818,321.715271 
	C385.383789,328.285645 387.546326,336.337524 391.099487,343.542053 
	C391.858124,345.080292 394.572540,346.868500 396.058960,346.616058 
	C401.528259,345.687073 409.285339,335.128601 408.891510,329.447357 
	C408.784119,327.897919 407.210907,326.402771 406.170746,324.985199 
	C405.649170,324.274353 404.553680,323.930664 404.162445,323.186951 
	C401.666656,318.443085 399.957367,313.147156 394.418030,310.741943 
	C393.584808,310.380157 393.096222,309.275665 392.379517,308.586182 
	C387.262360,303.663452 382.082825,298.804688 377.013824,293.833099 
	C373.684113,290.567383 370.467346,287.183533 367.268585,283.787964 
	C362.304474,278.518402 357.622192,272.960602 352.403198,267.960510 
	C347.553864,263.314575 341.461853,259.835236 337.142792,254.792404 
	C326.876831,242.806107 317.807343,229.693634 302.100922,223.895660 
	C300.666962,223.366333 299.211212,221.967667 298.500824,220.592804 
	C296.831451,217.361938 294.228241,216.887772 291.011322,216.895493 
	C288.249420,216.902130 285.025452,217.165817 282.811676,215.903061 
	C276.662506,212.395477 271.085205,213.735092 265.521301,216.745026 
	C264.404297,217.349274 263.514923,218.819595 263.035950,220.085571 
	C259.934784,228.282196 257.561401,236.820389 250.580246,242.932648 
	C246.253113,246.721222 242.551788,251.425110 237.760559,254.426910 
	C232.932831,257.451508 227.089539,258.842499 221.727951,261.038940 
	C220.727539,261.448761 219.678940,262.111115 219.030640,262.949341 
	C215.242233,267.847504 215.417755,273.416168 216.561172,279.098694 
	C217.358307,283.060303 218.187744,287.015411 219.098755,291.819458 
z"/>
<path fill="#6097C2" opacity="1.000000" stroke="none" 
	d="
M385.891510,181.570999 
	C398.873688,183.705124 410.633270,181.323608 421.192200,174.438721 
	C425.817535,171.422791 428.786591,172.368286 432.612305,175.568359 
	C448.723785,189.044983 455.482025,206.475372 455.446198,227.085861 
	C455.378113,266.251190 455.486420,305.416840 455.416840,344.582153 
	C455.401581,353.170959 453.143799,360.745636 444.515442,364.860291 
	C437.818665,368.053802 431.471954,367.010406 425.559143,363.155731 
	C419.611786,359.278625 419.152252,355.973663 423.094604,349.963654 
	C431.498474,337.152222 430.407501,320.703339 420.901917,308.501251 
	C418.934204,305.975342 417.832520,302.169342 417.732239,298.910217 
	C417.456055,289.934082 418.084686,280.934631 418.060028,271.945251 
	C418.014832,255.454987 417.339264,238.955063 417.742828,222.479156 
	C417.992340,212.293900 408.124939,201.919220 400.192383,200.110306 
	C389.134216,197.588699 378.059814,202.143539 373.014771,212.016815 
	C368.479156,220.893143 370.443695,230.572815 370.146240,239.951202 
	C369.995819,244.694046 370.119965,249.445602 370.119965,254.193222 
	C369.642181,254.386414 369.164398,254.579590 368.686615,254.772781 
	C367.227753,253.632248 365.637512,252.624283 364.331238,251.329773 
	C355.571991,242.649170 347.163116,233.587952 338.040131,225.312103 
	C332.997955,220.738129 332.579803,215.770294 333.996429,210.033554 
	C337.502075,195.837051 344.916504,184.092072 356.267151,174.790115 
	C359.516815,172.126968 362.250580,171.893143 366.171173,173.846786 
	C372.344086,176.922760 379.001343,179.026749 385.891510,181.570999 
M377.647461,202.022461 
	C378.124481,201.705872 378.601532,201.389267 379.774811,200.921280 
	C384.674744,198.191330 389.681641,194.692398 395.461487,196.272308 
	C401.127106,197.820999 406.417419,200.742950 412.217224,203.651260 
	C414.784210,207.821411 417.351196,211.991562 419.937042,216.971146 
	C420.265137,223.174576 420.827728,229.376190 420.876343,235.581802 
	C421.010681,252.718796 420.930237,269.857483 420.925232,287.932922 
	C420.928101,292.213715 420.905029,296.494751 420.940491,300.775269 
	C420.983307,305.940125 425.721039,311.852539 430.845245,313.746033 
	C430.854828,314.086578 430.864380,314.427094 430.210815,314.967010 
	C430.438202,316.050201 430.665558,317.133423 430.877594,318.606232 
	C430.877594,318.606232 430.901703,318.995453 430.888794,319.794495 
	C430.906830,320.859802 430.924835,321.925079 430.940735,323.924835 
	C430.947876,328.618195 430.954987,333.311523 430.932648,338.861786 
	C430.922699,340.577026 430.912750,342.292297 430.881500,344.590851 
	C430.884247,344.980286 430.886963,345.369690 430.195343,345.936371 
	C429.103180,347.633240 428.011017,349.330078 426.879181,351.410736 
	C426.879181,351.410736 426.908569,351.795410 426.177002,352.034332 
	C424.180756,354.357880 423.842316,356.487152 427.097412,358.599579 
	C427.274475,358.837097 427.504059,359.001160 427.992523,359.802338 
	C430.955505,364.337463 435.608124,362.966400 439.761475,363.043457 
	C444.957397,363.139862 452.838654,355.155823 452.737823,350.058319 
	C452.568604,341.505432 452.212341,332.954773 452.147614,324.401581 
	C452.043182,310.604462 452.111633,296.806030 452.128479,282.100006 
	C452.416351,266.069000 452.704224,250.037979 453.027374,233.097763 
	C453.014465,230.063858 453.001587,227.029953 453.015961,223.134933 
	C452.364990,219.426056 451.714020,215.717163 451.068604,211.200836 
	C449.076324,206.397903 447.084045,201.594971 445.113678,196.409653 
	C445.113678,196.409653 445.068939,196.029251 445.015106,195.318283 
	C443.702606,193.820709 442.390106,192.323135 441.113953,190.417892 
	C441.113953,190.417892 441.085480,190.009598 441.082611,189.267868 
	C437.385040,185.171783 433.687439,181.075714 429.285797,176.649094 
	C426.331177,177.093994 423.226654,177.108337 420.453217,178.073792 
	C414.753296,180.058014 409.388672,183.190674 403.583313,184.626526 
	C399.178680,185.715912 394.305695,184.913284 389.641052,184.948975 
	C380.778534,185.016785 373.020447,181.892715 365.579834,177.274414 
	C363.668762,176.088226 359.670227,175.584915 358.277679,176.744980 
	C354.060211,180.258255 350.650574,184.741302 346.355591,189.217255 
	C345.192017,191.129379 344.028473,193.041504 342.363525,195.391464 
	C341.560883,197.222183 340.758240,199.052917 339.464539,201.266586 
	C339.307190,201.854416 339.149811,202.442261 338.870911,203.781387 
	C338.485901,204.698395 338.047882,205.597137 337.724457,206.535370 
	C335.452881,213.125092 335.065979,219.257034 340.908539,224.566498 
	C345.784027,228.997131 350.174042,233.957916 354.968781,238.482880 
	C358.487427,241.803574 362.313080,244.798981 366.444214,248.315887 
	C367.016235,237.028122 367.545074,226.592224 368.506042,215.867706 
	C368.672791,215.569427 368.839539,215.271133 369.050995,214.349258 
	C369.071350,213.932983 369.091705,213.516693 369.695831,212.728561 
	C372.142609,209.170212 374.589417,205.611862 377.030945,202.003906 
	C377.030945,202.003906 377.054016,202.052597 377.647461,202.022461 
z"/>
<path fill="#79C4E0" opacity="1.000000" stroke="none" 
	d="
M509.979370,306.996826 
	C516.298096,300.609222 522.205444,294.298340 528.517578,288.422272 
	C537.883484,279.703339 535.799438,261.837128 525.749084,254.162735 
	C515.236084,246.135071 502.056641,247.969452 494.132812,256.901276 
	C489.167694,262.497955 483.648651,267.613647 478.223267,272.782562 
	C477.170654,273.785400 475.401733,274.036438 473.963257,274.634277 
	C473.382874,273.208832 472.311859,271.787933 472.298523,270.357178 
	C472.174255,257.032745 472.398071,243.703812 472.171082,230.382141 
	C472.044647,222.962128 477.554230,220.166611 482.600098,217.805084 
	C495.492218,211.771484 509.134827,209.111084 523.316467,212.351181 
	C525.280579,212.799896 527.938599,215.020782 528.323669,216.835480 
	C532.767639,237.775711 545.738037,250.693329 565.696716,256.889984 
	C570.101929,258.257690 571.641907,260.272888 572.187866,264.740906 
	C574.582397,284.337799 569.217712,301.502014 555.540833,315.441803 
	C526.728394,344.808075 497.390961,373.658630 468.374054,402.825378 
	C461.790741,409.442688 454.277008,411.127747 445.584656,408.443237 
	C438.018616,406.106537 432.228912,394.814178 435.139465,387.354126 
	C435.830566,385.582764 438.424408,383.569763 440.300018,383.399780 
	C455.737030,382.000580 469.884247,369.552734 471.085938,354.342926 
	C472.038666,342.284332 480.781128,336.454041 488.093781,329.182739 
	C495.375854,321.941833 502.535645,314.577942 509.979370,306.996826 
M564.506470,298.672760 
	C564.672913,298.105560 564.839294,297.538361 565.045349,296.202240 
	C568.614258,288.162262 569.436523,279.766846 569.242493,271.010132 
	C569.115601,265.283630 569.203979,261.341980 562.130615,259.101501 
	C553.505127,256.369415 545.989380,251.322479 539.131226,244.545792 
	C531.966980,237.466599 529.588867,228.520065 525.413330,220.314117 
	C524.073425,217.680817 523.115601,216.183090 520.497864,215.161163 
	C512.544739,212.056335 505.003174,214.813293 497.277924,216.206451 
	C492.277466,217.108231 487.667633,217.991791 484.511963,222.617920 
	C483.645172,223.888580 481.428925,224.487778 479.714203,224.878769 
	C476.218750,225.675858 474.822021,227.509369 474.882996,231.188095 
	C475.065186,242.175293 474.923645,253.167633 474.961060,264.157776 
	C474.965240,265.386932 475.305817,266.614990 475.721893,269.384888 
	C479.067535,266.252350 481.328156,263.735260 483.976776,261.730896 
	C491.917999,255.721207 497.436127,245.772003 509.608002,246.582718 
	C515.354797,246.965485 520.924438,246.584381 526.022949,250.335648 
	C530.591736,253.697174 533.218628,257.875336 535.885620,262.855469 
	C540.669373,271.788422 538.331238,279.718445 533.466003,286.476959 
	C528.013794,294.051025 520.562256,300.185883 513.531921,307.177307 
	C513.336182,307.445831 513.140442,307.714355 512.527405,308.201843 
	C512.269531,308.399261 512.089417,308.652069 511.412903,309.245911 
	C510.274170,310.502441 509.135437,311.758972 507.566650,313.227753 
	C507.298431,313.423126 507.113678,313.678802 506.410675,314.275879 
	C504.263031,316.508362 502.115387,318.740845 499.369141,321.273407 
	C492.321472,328.601807 485.026154,335.714844 478.362915,343.377563 
	C476.087585,345.994232 475.122437,349.908447 474.084076,353.386658 
	C473.396393,355.690094 474.469025,358.774750 473.331543,360.644653 
	C467.885620,369.597321 462.773926,379.047211 451.283997,382.965851 
	C450.487732,383.618896 449.691498,384.271942 448.450653,384.914642 
	C448.450653,384.914642 448.006775,384.941711 447.264618,384.930542 
	C446.134369,385.251404 445.004089,385.572296 443.116882,385.906616 
	C441.395508,386.570892 439.674133,387.235168 437.510773,388.163086 
	C437.349609,388.458832 437.188477,388.754578 437.002563,389.689056 
	C437.004120,390.115143 437.005676,390.541260 436.971375,391.753632 
	C437.298004,393.197479 437.624634,394.641296 438.045593,396.767151 
	C439.291046,398.290466 440.448242,399.897217 441.796570,401.323273 
	C449.252136,409.208679 457.103729,409.241302 465.091309,401.444702 
	C467.944580,398.659607 470.730408,395.805511 473.561890,392.997894 
	C489.363068,377.329712 505.168823,361.666077 521.557251,345.771179 
	C522.384583,344.852051 523.211914,343.932922 524.603088,342.729767 
	C525.742737,341.505035 526.882385,340.280273 528.614929,338.754944 
	C530.764038,336.514984 532.913147,334.275055 535.585449,331.633545 
	C540.230957,326.764282 544.925842,321.940826 549.502930,317.008118 
	C552.147583,314.157959 554.602478,311.131653 557.809998,308.021973 
	C559.874146,305.014252 561.938293,302.006500 564.000000,299.000000 
	C564.000000,299.000000 564.000000,299.002594 564.506470,298.672760 
z"/>
<path fill="#5F94BF" opacity="1.000000" stroke="none" 
	d="
M595.992126,340.072510 
	C601.423279,345.413757 606.616516,350.491760 611.690063,355.686615 
	C614.315063,358.374420 613.929749,361.211914 611.928894,364.252045 
	C603.239929,377.453888 601.663086,391.798035 605.879883,406.784821 
	C607.080688,411.052673 609.150818,415.157043 611.351624,419.036041 
	C613.026855,421.988556 612.802124,424.323090 610.879822,426.820679 
	C598.915344,442.365234 583.186035,451.403198 563.555481,451.613342 
	C521.416260,452.064484 479.268799,451.816772 437.125000,451.725983 
	C429.625336,451.709839 423.769409,448.550476 420.043182,441.610291 
	C416.140137,434.340759 417.572540,427.845947 422.080109,421.592499 
	C425.668854,416.613770 427.759918,416.360992 432.750336,420.067413 
	C444.227356,428.591553 460.581665,430.206329 471.319824,421.439636 
	C479.333374,414.897369 487.456390,414.295959 496.706696,414.402985 
	C518.025696,414.649689 539.349792,414.547546 560.671204,414.453064 
	C574.873718,414.390137 585.669495,403.612610 585.424438,390.003693 
	C585.199463,377.507996 574.153259,366.852783 560.904358,366.579834 
	C552.745667,366.411743 544.580139,366.605225 536.418762,366.523773 
	C534.545044,366.505066 532.675964,366.023956 530.033142,365.645020 
	C531.452026,363.916992 532.183228,362.859894 533.076416,361.964233 
	C542.838867,352.175049 552.680969,342.464447 562.371704,332.605103 
	C565.005859,329.925171 567.914307,328.759125 571.363586,330.084747 
	C579.523926,333.221008 587.596497,336.585510 595.992126,340.072510 
M584.241272,376.734833 
	C585.141724,378.824951 586.042236,380.915070 586.953064,383.937927 
	C587.300293,393.315186 587.782349,402.728821 579.328369,410.212036 
	C576.166992,412.450256 573.005615,414.688507 568.926941,416.926697 
	C559.313843,417.274048 549.701843,417.849396 540.087280,417.895355 
	C532.640564,417.930939 525.189514,417.014099 517.742493,417.044373 
	C507.961914,417.084106 498.185272,417.723236 488.403290,417.937866 
	C482.858337,418.059509 478.168823,419.409180 475.308197,424.709106 
	C474.829956,425.595123 473.518219,426.299377 472.460663,426.563965 
	C458.337372,430.097260 444.309204,432.487396 431.031677,423.510620 
	C429.857483,422.716736 427.178101,422.741211 426.022766,423.555725 
	C418.462219,428.886047 419.491211,441.299805 427.315247,446.322266 
	C433.733459,450.442230 440.959991,449.562134 447.642151,449.668823 
	C480.098663,450.186951 512.568481,449.871674 545.948853,449.928467 
	C554.020752,449.619598 562.096191,449.374725 570.160034,448.921967 
	C571.183044,448.864532 572.144958,447.718811 573.945496,447.078217 
	C589.134460,444.579041 599.941650,435.652832 608.269714,423.319611 
	C609.007446,422.227051 608.415466,419.887878 607.861633,418.334320 
	C605.838074,412.658722 602.451843,407.230713 601.619141,401.417206 
	C599.739075,388.291260 600.948120,375.357361 608.722534,363.869385 
	C611.084167,360.379730 610.711792,357.501465 607.147949,354.906006 
	C605.033081,353.365814 603.240417,351.349213 601.447571,349.412872 
	C600.258301,348.128479 599.629089,346.037842 598.225647,345.288177 
	C591.431396,341.659027 584.413513,338.451813 577.564880,334.920380 
	C571.106628,331.590271 566.479797,332.367249 561.479675,337.881561 
	C560.590637,338.862030 559.477905,339.637817 558.570190,340.603729 
	C555.649658,343.711548 552.804504,346.890442 549.873169,349.987762 
	C548.523621,351.413666 547.072083,352.747986 545.611877,354.062805 
	C543.418396,356.037964 541.176575,357.959442 538.361145,360.238708 
	C537.705750,361.258301 537.050415,362.277924 536.395020,363.297516 
	C537.277161,363.533325 538.159363,363.769104 539.957092,364.026215 
	C548.921570,364.047546 557.886108,364.068909 567.351929,364.606293 
	C571.212891,366.454346 575.073914,368.302399 579.256470,370.716644 
	C580.816284,372.520996 582.376099,374.325317 584.241272,376.734833 
z"/>
<path fill="#C1EDFA" opacity="1.000000" stroke="none" 
	d="
M513.721069,535.552246 
	C506.559021,537.331970 500.781555,534.034668 495.858002,529.177856 
	C479.496429,513.037903 463.301697,496.728882 447.035889,480.491821 
	C441.660278,475.125671 436.485779,470.803436 428.019165,469.133728 
	C413.151123,466.201569 403.220184,456.029053 400.302002,440.532776 
	C399.603638,436.824097 398.098053,435.764801 394.760437,435.975403 
	C387.279480,436.447388 381.594604,439.784363 379.000702,446.915588 
	C376.573547,453.588257 377.309814,459.943420 382.689362,465.316284 
	C411.563629,494.154572 440.229248,523.204712 469.368896,551.771667 
	C475.306091,557.592224 482.533447,562.490112 489.936920,566.325073 
	C499.858704,571.464539 510.889191,572.225586 522.004089,570.606262 
	C525.044189,570.163330 526.438049,568.681641 527.164185,565.602051 
	C532.364197,543.548340 546.250854,530.234558 568.185913,524.787231 
	C570.154663,524.298340 572.706970,520.830200 572.716919,518.734924 
	C572.753845,510.985046 573.065186,502.873444 570.941772,495.576263 
	C568.721619,487.946594 564.028564,480.973572 559.938354,473.993713 
	C558.872070,472.174133 556.046204,470.351318 553.993164,470.310638 
	C539.702332,470.027527 525.402222,470.210480 511.105133,470.271423 
	C510.841614,470.272522 510.579559,470.610138 509.709381,471.208282 
	C510.848389,472.707336 511.825226,474.321167 513.112000,475.630341 
	C519.181946,481.806183 525.327698,487.907867 531.464355,494.017914 
	C536.316162,498.848633 538.459229,504.730743 538.082214,511.734100 
	C533.628967,498.311890 523.543030,489.168610 513.575134,479.856323 
	C510.677917,477.149719 508.508820,473.663696 505.235138,469.571320 
	C507.668549,468.600983 509.576569,467.203400 511.505554,467.173828 
	C524.493469,466.974640 537.486389,466.992889 550.476624,467.090179 
	C558.174377,467.147827 564.027100,469.664429 566.617615,477.985138 
	C568.883545,485.263428 573.528503,491.964874 574.849426,499.328857 
	C576.252625,507.150452 575.134155,515.460266 574.707153,523.535156 
	C574.643738,524.735046 572.466064,526.582581 571.039001,526.832764 
	C557.665466,529.177185 546.613953,535.775208 538.522705,546.305481 
	C533.708862,552.570435 530.101929,559.972656 528.815430,568.200867 
	C528.542419,569.946838 526.309814,572.663208 524.865112,572.738831 
	C516.473450,573.178284 507.789490,574.263306 499.694550,572.658142 
	C488.030090,570.345032 477.597351,564.664062 469.098633,555.748657 
	C460.967957,547.219360 452.234528,539.268005 443.904419,530.924561 
	C435.600403,522.607178 427.570709,514.015137 419.236511,505.728790 
	C407.000183,493.562836 394.559937,481.602295 382.282715,469.477081 
	C372.818054,460.129547 372.874908,446.864532 382.168640,437.744568 
	C387.120026,432.885742 393.746124,433.176666 400.018982,434.783722 
	C401.300781,435.112091 402.647980,437.611267 402.870300,439.257629 
	C404.371185,450.372192 410.581329,458.055878 420.296112,462.813721 
	C424.878601,465.058014 430.412048,465.399963 434.919586,467.746735 
	C439.305695,470.030304 443.264923,473.433960 446.834778,476.934082 
	C463.946564,493.711731 480.629150,510.935455 498.022858,527.410950 
	C502.052643,531.227966 508.272644,532.732666 513.721069,535.552246 
z"/>
<path fill="#6BBBD9" opacity="1.000000" stroke="none" 
	d="
M604.050049,601.040039 
	C590.389771,615.116821 567.904053,615.357422 553.972229,602.013916 
	C540.694214,589.296631 539.646545,566.264526 553.074585,552.010559 
	C565.883423,538.414001 589.503418,537.798340 602.301636,550.265747 
	C616.957764,564.543091 617.845703,586.852600 604.050049,601.040039 
M597.076294,602.885620 
	C599.682983,600.247803 602.523071,597.793823 604.803101,594.898743 
	C606.039429,593.328796 606.196167,590.951233 607.055725,589.034729 
	C610.667664,580.981689 612.284302,572.462097 607.540833,564.767944 
	C604.231262,559.399475 601.527649,553.471436 594.587097,550.174133 
	C588.614319,547.336609 583.358521,544.532593 576.526245,544.858093 
	C568.342590,545.247925 561.571228,549.567688 556.116150,554.231140 
	C551.529297,558.152405 549.108704,565.362793 547.347351,571.575867 
	C546.114197,575.925659 546.100403,581.911926 548.230225,585.625671 
	C551.529846,591.379395 553.933105,597.726379 560.658997,601.907104 
	C568.586060,606.834351 575.983459,609.507202 584.891113,607.196350 
	C588.799683,606.182251 592.516907,604.431274 597.076294,602.885620 
z"/>
<path fill="#C3EEFA" opacity="1.000000" stroke="none" 
	d="
M579.018738,171.041138 
	C593.848206,169.921204 608.294495,181.856781 612.902405,194.549698 
	C617.971313,208.512512 615.296997,221.228775 605.646667,232.172333 
	C594.870483,244.392746 573.948059,246.718460 559.777344,238.264069 
	C542.968811,228.235916 541.397644,213.485153 543.362000,198.469910 
	C544.564819,189.275497 549.660156,180.825424 557.779236,176.338943 
	C563.829956,172.995377 571.563049,172.696289 579.018738,171.041138 
M611.415894,215.514771 
	C615.233215,196.123871 605.907410,182.839905 592.073547,176.370956 
	C578.663818,170.100327 562.129883,174.494736 552.955261,185.412186 
	C543.560547,196.591568 542.431580,213.180176 550.470825,225.833862 
	C557.342224,236.649338 567.893311,241.440887 580.162903,240.843216 
	C595.871826,240.078003 606.289124,231.383148 611.415894,215.514771 
z"/>
<path fill="#C1EDFA" opacity="1.000000" stroke="none" 
	d="
M537.375671,514.993286 
	C538.137695,522.360229 533.742798,527.381042 528.448486,531.378784 
	C525.431519,533.656860 521.300171,534.459229 517.285400,535.806152 
	C522.508179,530.402344 528.168701,525.172302 533.687134,519.796448 
	C535.049194,518.469604 535.949280,516.668518 537.375671,514.993286 
z"/>
<path fill="#34AEE0" opacity="1.000000" stroke="none" 
	d="
M244.724731,457.729462 
	C249.136276,453.978729 253.577057,450.759003 257.382904,446.911285 
	C261.843475,442.401733 265.615265,437.218933 269.943115,432.567566 
	C273.302795,428.956787 277.168304,425.821442 280.612366,422.283356 
	C286.814667,415.911652 292.680756,409.203522 299.031891,402.988007 
	C307.863861,394.344727 316.838745,385.827789 326.107849,377.660065 
	C330.115692,374.128448 334.938446,376.143280 339.305695,377.859924 
	C344.489868,379.897736 346.260986,384.932281 348.467529,389.273071 
	C350.620056,393.507660 347.598145,396.784576 342.106079,398.066864 
	C330.820190,400.701904 321.634857,405.965210 316.793152,417.518311 
	C315.094635,421.571167 313.832550,425.563416 312.482361,429.633759 
	C310.908997,434.376923 306.412292,438.374390 302.607239,442.107422 
	C294.223724,450.332245 285.119934,457.842468 276.975098,466.285797 
	C267.846619,475.748871 259.370148,485.849854 250.820786,495.853424 
	C249.438309,497.471069 248.565964,500.000946 248.478745,502.150543 
	C248.294708,506.686951 248.718994,511.255157 249.014771,515.802429 
	C249.631012,525.276855 253.468506,530.122009 262.361298,533.033752 
	C266.054138,534.242859 269.637177,536.600342 273.349152,536.777100 
	C282.482941,537.211975 289.733551,532.617004 295.895721,526.209473 
	C299.437500,522.526611 302.820984,518.686279 306.463776,515.108398 
	C307.904480,513.693359 309.855621,512.797974 311.419617,511.768005 
	C312.207550,512.467773 312.659760,512.684448 312.655853,512.892578 
	C312.492981,521.584045 312.169952,530.274353 312.144257,538.965698 
	C312.132568,542.921936 313.048187,546.900085 312.821594,550.826660 
	C312.737091,552.290527 310.724701,553.782776 309.348511,554.983643 
	C308.417328,555.796143 307.016052,556.042480 305.904022,556.679810 
	C300.242676,559.924561 294.949921,564.732178 288.875702,566.104187 
	C281.271118,567.821960 273.031921,566.779480 265.067078,566.760864 
	C264.417633,566.759338 263.466492,565.578613 263.173004,564.760254 
	C261.308929,559.562378 259.651917,554.290222 257.782654,549.094238 
	C257.287628,547.718262 256.525757,546.270142 255.480209,545.287170 
	C247.998215,538.253174 242.051575,529.252930 231.012436,526.771118 
	C227.441223,525.968323 223.927887,524.414429 220.749817,522.578064 
	C219.298203,521.739319 218.405411,519.488159 217.811081,517.694763 
	C216.056763,512.400940 213.893387,507.144653 218.513367,501.864502 
	C219.623611,500.595551 218.954742,497.693359 218.951279,495.542572 
	C218.944229,491.155853 219.924438,487.324524 224.035797,484.879578 
	C224.816940,484.415009 225.648773,483.520599 225.852554,482.678223 
	C228.498947,471.738556 237.180511,465.389465 244.724731,457.729462 
z"/>
<path fill="#2476BA" opacity="1.000000" stroke="none" 
	d="
M236.993439,332.989624 
	C275.019806,332.986816 313.046173,332.983978 351.538086,333.383301 
	C350.676117,336.755615 349.348602,339.725800 347.836395,343.109222 
	C348.247253,343.735931 349.097382,345.032684 350.011322,346.426819 
	C348.393768,347.581177 347.162781,348.459686 346.001617,349.288361 
	C346.786285,351.128204 347.417542,352.608398 348.048828,354.088562 
	C343.945648,353.099884 339.842438,352.111176 335.298706,350.702698 
	C331.794220,349.541382 328.749664,348.687286 325.650085,348.152100 
	C325.020020,348.043335 324.182495,349.136017 323.440613,349.674866 
	C323.989349,350.133301 324.538116,350.591766 325.086853,351.050201 
	C322.928162,352.340637 320.735748,354.765045 318.617279,354.702057 
	C312.985535,354.534668 309.345367,357.491119 305.604645,360.847534 
	C304.535583,361.806854 303.016541,362.264679 301.386475,362.626801 
	C304.136383,357.554199 307.203613,352.807251 310.412292,347.841370 
	C305.015167,345.861053 302.054321,347.785156 299.518280,351.078857 
	C298.430481,352.491669 297.352600,354.183716 295.859955,354.959473 
	C292.204315,356.859436 291.309723,359.392365 293.004669,363.018158 
	C269.507050,363.026306 246.009109,363.103607 222.511932,363.002991 
	C214.867722,362.970245 209.698578,366.398529 205.961716,372.890839 
	C204.737320,375.018066 202.388153,376.497894 199.760132,379.041534 
	C201.865723,389.897400 199.124649,403.585297 209.489166,413.770233 
	C211.889969,416.129425 214.122711,417.669098 218.079376,417.205719 
	C223.105682,416.617065 228.309280,417.679718 233.442261,417.825745 
	C238.489227,417.969391 243.543457,417.857056 248.643311,417.857056 
	C248.689362,418.039215 248.942352,418.528198 248.824234,418.646484 
	C244.294220,423.181915 239.725327,427.678467 235.174408,432.193085 
	C234.134506,433.224701 233.166702,434.329346 232.121033,435.354797 
	C228.279678,439.121643 224.453796,442.905975 220.523758,446.578491 
	C220.022736,447.046722 218.847382,447.198090 218.142548,446.981537 
	C210.234741,444.552399 201.310455,445.039734 194.994431,438.069153 
	C190.630310,433.252777 185.444702,429.186554 180.978058,424.453064 
	C179.918396,423.330109 179.352386,420.264679 180.110840,419.128357 
	C188.825165,406.072815 187.953873,391.703247 185.635010,377.390717 
	C184.869781,372.667572 181.744934,368.235687 179.282715,363.907410 
	C177.321106,360.459167 177.426300,357.905670 180.472672,355.164001 
	C182.988327,352.900055 185.024994,350.105469 187.289429,347.559814 
	C187.945358,346.822449 188.526474,345.870972 189.359940,345.462036 
	C196.977142,341.724487 204.460983,337.605591 212.367661,334.612000 
	C216.548401,333.029144 221.489655,333.454956 226.505798,333.353943 
	C227.327057,334.815063 227.619247,336.779449 228.149582,336.846008 
	C237.618851,338.034241 247.106430,339.724213 256.610931,339.861206 
	C283.907013,340.254791 311.212402,340.000122 338.514160,339.999664 
	C339.679474,339.999634 340.923035,340.248596 341.987976,339.920319 
	C343.039612,339.596191 343.910706,338.686157 344.860992,338.033142 
	C344.109436,337.341980 343.452545,336.236420 342.588165,336.038910 
	C340.188416,335.490479 337.702850,335.046478 335.250214,335.041473 
	C304.286163,334.978333 273.321808,335.033417 242.358093,334.914124 
	C240.567429,334.907257 238.781540,333.659729 236.993439,332.989624 
M277.953644,344.977356 
	C271.121490,344.985474 264.272308,344.715149 257.465240,345.132538 
	C254.555450,345.310944 251.733582,346.923187 248.871765,347.883911 
	C248.987686,348.584381 249.103607,349.284851 249.219513,349.985321 
	C250.689835,350.323273 252.151932,350.902252 253.632050,350.952667 
	C257.626770,351.088715 261.629150,351.000488 265.628510,350.999847 
	C271.460876,350.998932 277.305969,351.208160 283.117432,350.858826 
	C284.736237,350.761505 286.537048,349.253113 287.694641,347.909760 
	C288.224365,347.294983 287.728577,344.655579 287.123962,344.422363 
	C285.440430,343.773041 283.453491,343.751068 281.592529,343.788361 
	C280.664398,343.806946 279.749725,344.496613 277.953644,344.977356 
z"/>
<path fill="#2277BF" opacity="1.000000" stroke="none" 
	d="
M236.540131,332.983612 
	C238.781540,333.659729 240.567429,334.907257 242.358093,334.914124 
	C273.321808,335.033417 304.286163,334.978333 335.250214,335.041473 
	C337.702850,335.046478 340.188416,335.490479 342.588165,336.038910 
	C343.452545,336.236420 344.109436,337.341980 344.860992,338.033142 
	C343.910706,338.686157 343.039612,339.596191 341.987976,339.920319 
	C340.923035,340.248596 339.679474,339.999634 338.514160,339.999664 
	C311.212402,340.000122 283.907013,340.254791 256.610931,339.861206 
	C247.106430,339.724213 237.618851,338.034241 228.149582,336.846008 
	C227.619247,336.779449 227.327057,334.815063 226.965073,333.362061 
	C230.033020,332.985962 233.059921,332.981781 236.540131,332.983612 
z"/>
<path fill="#2476BA" opacity="1.000000" stroke="none" 
	d="
M361.096893,338.936554 
	C362.305695,340.751312 363.514496,342.566101 364.490448,344.740479 
	C361.128845,348.038086 361.049408,351.357391 364.044495,354.003845 
	C363.673370,354.540039 363.341095,355.108612 362.925140,355.607483 
	C357.787689,361.769196 355.685181,361.615631 351.318665,354.337097 
	C352.455414,351.555298 353.751434,349.237579 353.990326,346.815552 
	C354.268616,343.994080 353.557373,341.166138 357.751190,340.819977 
	C358.910370,340.724304 359.984009,339.592804 361.096893,338.936554 
z"/>
<path fill="#2278BF" opacity="1.000000" stroke="none" 
	d="
M293.448120,363.022644 
	C291.309723,359.392365 292.204315,356.859436 295.859955,354.959473 
	C297.352600,354.183716 298.430481,352.491669 299.518280,351.078857 
	C302.054321,347.785156 305.015167,345.861053 310.412292,347.841370 
	C307.203613,352.807251 304.136383,357.554199 301.030823,362.653015 
	C298.625549,363.012299 296.258545,363.019684 293.448120,363.022644 
z"/>
<path fill="#2278C0" opacity="1.000000" stroke="none" 
	d="
M361.039429,338.585144 
	C359.984009,339.592804 358.910370,340.724304 357.751190,340.819977 
	C353.557373,341.166138 354.268616,343.994080 353.990326,346.815552 
	C353.751434,349.237579 352.455414,351.555298 351.270203,353.985962 
	C350.197205,354.054718 349.480896,354.056641 348.406677,354.073547 
	C347.417542,352.608398 346.786285,351.128204 346.001617,349.288361 
	C347.162781,348.459686 348.393768,347.581177 350.011322,346.426819 
	C349.097382,345.032684 348.247253,343.735931 347.836395,343.109222 
	C349.348602,339.725800 350.676117,336.755615 352.007324,333.395630 
	C355.001312,334.748413 357.991608,336.491058 361.039429,338.585144 
z"/>
<path fill="#2377BE" opacity="1.000000" stroke="none" 
	d="
M364.194946,353.699432 
	C361.049408,351.357391 361.128845,348.038086 364.645111,345.049561 
	C367.096039,347.985291 367.653412,350.848358 364.194946,353.699432 
z"/>
<path fill="#2377BE" opacity="1.000000" stroke="none" 
	d="
M325.532104,351.049744 
	C324.538116,350.591766 323.989349,350.133301 323.440613,349.674866 
	C324.182495,349.136017 325.020020,348.043335 325.650085,348.152100 
	C328.749664,348.687286 331.794220,349.541382 334.930023,350.656860 
	C331.993683,351.037018 328.985535,351.043152 325.532104,351.049744 
z"/>
<path fill="#35AEE0" opacity="1.000000" stroke="none" 
	d="
M219.050751,291.396423 
	C218.187744,287.015411 217.358307,283.060303 216.561172,279.098694 
	C215.417755,273.416168 215.242233,267.847504 219.030640,262.949341 
	C219.678940,262.111115 220.727539,261.448761 221.727951,261.038940 
	C227.089539,258.842499 232.932831,257.451508 237.760559,254.426910 
	C242.551788,251.425110 246.253113,246.721222 250.580246,242.932648 
	C257.561401,236.820389 259.934784,228.282196 263.035950,220.085571 
	C263.514923,218.819595 264.404297,217.349274 265.521301,216.745026 
	C271.085205,213.735092 276.662506,212.395477 282.811676,215.903061 
	C285.025452,217.165817 288.249420,216.902130 291.011322,216.895493 
	C294.228241,216.887772 296.831451,217.361938 298.500824,220.592804 
	C299.211212,221.967667 300.666962,223.366333 302.100922,223.895660 
	C317.807343,229.693634 326.876831,242.806107 337.142792,254.792404 
	C341.461853,259.835236 347.553864,263.314575 352.403198,267.960510 
	C357.622192,272.960602 362.304474,278.518402 367.268585,283.787964 
	C370.467346,287.183533 373.684113,290.567383 377.013824,293.833099 
	C382.082825,298.804688 387.262360,303.663452 392.379517,308.586182 
	C393.096222,309.275665 393.584808,310.380157 394.418030,310.741943 
	C399.957367,313.147156 401.666656,318.443085 404.162445,323.186951 
	C404.553680,323.930664 405.649170,324.274353 406.170746,324.985199 
	C407.210907,326.402771 408.784119,327.897919 408.891510,329.447357 
	C409.285339,335.128601 401.528259,345.687073 396.058960,346.616058 
	C394.572540,346.868500 391.858124,345.080292 391.099487,343.542053 
	C387.546326,336.337524 385.383789,328.285645 380.969818,321.715271 
	C377.002808,315.810211 370.188416,311.880432 362.845703,311.182678 
	C352.244873,310.175354 344.583557,304.270355 337.370911,297.538239 
	C330.853333,291.454865 324.888428,284.781891 318.627167,278.420746 
	C312.260406,271.952393 305.904877,265.469635 299.399017,259.142700 
	C295.262787,255.120255 291.351166,250.460785 286.414886,247.802872 
	C282.838348,245.877106 277.748230,246.730438 273.326996,246.434860 
	C272.535400,246.381943 271.655243,247.060440 270.915802,246.910110 
	C260.880096,244.869675 256.345612,252.762344 250.448944,258.176941 
	C249.974243,258.612823 249.434479,259.210907 249.345795,259.797272 
	C248.631088,264.523438 247.186111,269.329193 247.546616,273.988190 
	C248.285873,283.542114 253.322556,291.007233 260.825806,296.961121 
	C263.077576,298.747955 264.873138,301.205383 266.565369,303.578339 
	C268.880554,306.824860 266.881317,308.756073 263.844574,308.907990 
	C257.186279,309.240997 250.499146,309.027710 243.824387,308.969177 
	C242.853394,308.960693 241.611069,308.079315 240.957870,308.440369 
	C231.894669,313.450806 229.512268,305.725128 225.734055,300.606964 
	C223.554291,297.654175 221.312592,294.747101 219.050751,291.396423 
z"/>
<path fill="#2477BA" opacity="1.000000" stroke="none" 
	d="
M368.073914,216.156342 
	C367.545074,226.592224 367.016235,237.028122 366.444214,248.315887 
	C362.313080,244.798981 358.487427,241.803574 354.968781,238.482880 
	C350.174042,233.957916 345.784027,228.997131 340.908539,224.566498 
	C335.065979,219.257034 335.452881,213.125092 337.724457,206.535370 
	C338.047882,205.597137 338.485901,204.698395 339.184692,203.221466 
	C339.650848,202.068924 339.803223,201.476273 339.955597,200.883636 
	C340.758240,199.052917 341.560883,197.222183 342.992798,195.156403 
	C346.775604,194.012527 347.243591,191.643097 346.926208,188.846497 
	C350.650574,184.741302 354.060211,180.258255 358.277679,176.744980 
	C359.670227,175.584915 363.668762,176.088226 365.579834,177.274414 
	C373.020447,181.892715 380.778534,185.016785 389.641052,184.948975 
	C394.305695,184.913284 399.178680,185.715912 403.583313,184.626526 
	C409.388672,183.190674 414.753296,180.058014 420.453217,178.073792 
	C423.226654,177.108337 426.331177,177.093994 429.641479,177.224884 
	C430.264557,182.327042 435.908478,188.541321 441.085480,190.009598 
	C441.085480,190.009598 441.113953,190.417892 441.068359,191.021484 
	C441.015167,192.416702 441.007599,193.208359 440.623779,193.994675 
	C436.268677,191.440506 432.289825,188.891663 428.231812,186.292130 
	C427.554230,188.558868 427.501984,192.558304 425.479248,194.443878 
	C423.381653,196.399185 419.375336,196.306854 416.192871,197.112869 
	C417.781616,200.688904 418.945099,203.740128 420.460968,206.604843 
	C422.166779,209.828415 423.513885,213.859985 426.252258,215.757629 
	C429.453461,217.976013 430.063385,220.173370 430.045197,223.540268 
	C429.948883,241.358994 429.939514,259.178925 430.059143,276.997375 
	C430.079224,279.986023 430.879059,282.969452 431.353424,286.191833 
	C439.927185,282.294708 441.907104,283.777710 442.043304,292.696014 
	C442.120117,297.727570 442.661438,302.750977 442.926147,307.781616 
	C442.977356,308.754822 442.723358,309.745361 442.598083,310.726349 
	C442.067871,314.878632 441.372467,319.017914 441.051025,323.186157 
	C440.795654,326.497314 441.149139,329.852173 440.963684,333.172607 
	C440.489594,341.664124 438.282745,343.965576 430.902802,344.007538 
	C430.912750,342.292297 430.922699,340.577026 431.316345,338.425690 
	C433.783722,335.295258 437.444214,332.613739 437.466339,329.902557 
	C437.484985,327.616394 433.278931,325.295776 430.942871,322.990387 
	C430.924835,321.925079 430.906830,320.859802 431.310852,319.389160 
	C432.821777,317.499695 434.460052,316.155579 434.881592,314.501404 
	C435.682800,311.357330 435.267609,307.858765 436.298859,304.827667 
	C438.039825,299.710632 435.368896,296.497803 432.920471,293.009369 
	C432.346863,292.962463 431.773254,292.915558 431.199646,292.868652 
	C430.467438,296.579346 429.735199,300.290039 428.694580,303.849121 
	C424.254730,301.216522 422.810638,297.531860 422.882050,292.791229 
	C422.911011,290.869537 421.623291,288.927979 420.934723,286.995483 
	C420.930237,269.857483 421.010681,252.718796 420.876343,235.581802 
	C420.827728,229.376190 420.265137,223.174576 419.958344,216.121994 
	C420.027802,207.382599 417.797211,204.023010 411.872437,203.062180 
	C406.417419,200.742950 401.127106,197.820999 395.461487,196.272308 
	C389.681641,194.692398 384.674744,198.191330 379.246704,200.756958 
	C378.163727,201.079300 377.608887,201.565948 377.054016,202.052597 
	C377.054016,202.052597 377.030945,202.003906 376.645966,202.009094 
	C370.271484,203.004852 367.125305,207.883789 369.112061,213.100418 
	C369.091705,213.516693 369.071350,213.932983 368.799866,214.792694 
	C368.390472,215.542877 368.232208,215.849609 368.073914,216.156342 
M428.874573,286.341766 
	C427.967926,286.886108 426.331635,287.387329 426.296417,287.983246 
	C426.203949,289.546967 426.809326,291.151978 427.136688,292.740509 
	C427.750031,292.625610 428.363342,292.510681 428.976685,292.395752 
	C428.976685,290.631287 428.976685,288.866791 428.874573,286.341766 
z"/>
<path fill="#2477BA" opacity="1.000000" stroke="none" 
	d="
M451.063019,212.008301 
	C451.714020,215.717163 452.364990,219.426056 452.716125,223.848267 
	C452.608215,227.710052 452.800171,230.858505 452.992126,234.006958 
	C452.704224,250.037979 452.416351,266.069000 451.745850,282.497253 
	C450.181396,282.290680 448.999512,281.686859 446.998779,280.664642 
	C446.998779,302.061035 446.998779,322.531128 446.602783,342.909058 
	C445.804504,341.149292 445.060791,339.483429 445.052643,337.813934 
	C444.967346,320.329407 444.983185,302.844299 445.014404,285.359436 
	C445.020416,281.995300 444.844482,279.167023 440.083374,280.311066 
	C439.248291,280.511719 437.431885,279.251709 437.080658,278.294830 
	C436.358154,276.326477 436.015381,274.102203 436.048615,271.991608 
	C436.291687,256.546112 436.679108,241.102921 436.991058,225.658386 
	C437.067352,221.881470 436.345703,217.981750 440.071808,215.163681 
	C440.803131,214.610565 440.589020,212.807388 440.810974,211.580750 
	C440.404480,211.422165 439.997986,211.263580 439.591492,211.105011 
	C438.519531,212.278122 437.647980,213.851471 436.321259,214.515854 
	C434.891205,215.231949 432.494446,215.894867 431.459106,215.193619 
	C427.205414,212.312546 425.617554,200.723740 428.781036,196.741257 
	C429.481293,195.859726 431.611755,195.042465 432.384125,195.467300 
	C436.767395,197.878342 440.874603,200.703262 441.018677,206.536697 
	C441.045074,207.603729 441.406769,208.662445 441.613678,209.725006 
	C442.065338,209.939835 442.516968,210.154663 442.968597,210.369492 
	C443.982422,208.910172 444.996216,207.450851 446.363525,206.053101 
	C448.165680,208.079208 449.614349,210.043747 451.063019,212.008301 
z"/>
<path fill="#2278BF" opacity="1.000000" stroke="none" 
	d="
M446.010010,205.991547 
	C444.996216,207.450851 443.982422,208.910172 442.968597,210.369492 
	C442.516968,210.154663 442.065338,209.939835 441.613678,209.725006 
	C441.406769,208.662445 441.045074,207.603729 441.018677,206.536697 
	C440.874603,200.703262 436.767395,197.878342 432.384125,195.467300 
	C431.611755,195.042465 429.481293,195.859726 428.781036,196.741257 
	C425.617554,200.723740 427.205414,212.312546 431.459106,215.193619 
	C432.494446,215.894867 434.891205,215.231949 436.321259,214.515854 
	C437.647980,213.851471 438.519531,212.278122 439.591492,211.105011 
	C439.997986,211.263580 440.404480,211.422165 440.810974,211.580750 
	C440.589020,212.807388 440.803131,214.610565 440.071808,215.163681 
	C436.345703,217.981750 437.067352,221.881470 436.991058,225.658386 
	C436.679108,241.102921 436.291687,256.546112 436.048615,271.991608 
	C436.015381,274.102203 436.358154,276.326477 437.080658,278.294830 
	C437.431885,279.251709 439.248291,280.511719 440.083374,280.311066 
	C444.844482,279.167023 445.020416,281.995300 445.014404,285.359436 
	C444.983185,302.844299 444.967346,320.329407 445.052643,337.813934 
	C445.060791,339.483429 445.804504,341.149292 446.609070,343.286316 
	C447.517853,345.135834 447.728119,346.746033 448.587463,347.851898 
	C450.975525,350.925262 449.524963,352.798676 446.956299,354.965759 
	C446.107269,353.158325 445.796814,351.231598 444.678894,350.427551 
	C443.170349,349.342529 441.040558,349.121155 439.177368,348.529175 
	C438.646057,350.391815 437.329041,352.447693 437.730713,354.080872 
	C438.934387,358.975067 438.267914,360.196655 433.127136,359.963348 
	C431.337341,359.882111 429.565948,359.394012 427.786163,359.091705 
	C427.504059,359.001160 427.274475,358.837097 427.034058,357.946899 
	C426.949982,355.461273 426.929291,353.628326 426.908569,351.795410 
	C426.908569,351.795410 426.879181,351.410736 427.265991,351.175171 
	C428.731750,349.212799 429.810730,347.485962 430.889709,345.759125 
	C430.886963,345.369690 430.884247,344.980286 430.892151,344.299194 
	C438.282745,343.965576 440.489594,341.664124 440.963684,333.172607 
	C441.149139,329.852173 440.795654,326.497314 441.051025,323.186157 
	C441.372467,319.017914 442.067871,314.878632 442.598083,310.726349 
	C442.723358,309.745361 442.977356,308.754822 442.926147,307.781616 
	C442.661438,302.750977 442.120117,297.727570 442.043304,292.696014 
	C441.907104,283.777710 439.927185,282.294708 431.353424,286.191833 
	C430.879059,282.969452 430.079224,279.986023 430.059143,276.997375 
	C429.939514,259.178925 429.948883,241.358994 430.045197,223.540268 
	C430.063385,220.173370 429.453461,217.976013 426.252258,215.757629 
	C423.513885,213.859985 422.166779,209.828415 420.460968,206.604843 
	C418.945099,203.740128 417.781616,200.688904 416.192871,197.112869 
	C419.375336,196.306854 423.381653,196.399185 425.479248,194.443878 
	C427.501984,192.558304 427.554230,188.558868 428.231812,186.292130 
	C432.289825,188.891663 436.268677,191.440506 440.816528,194.263779 
	C442.613342,195.035217 443.841125,195.532227 445.068939,196.029236 
	C445.068939,196.029251 445.113678,196.409653 445.071686,197.036255 
	C445.356476,200.439102 445.683258,203.215317 446.010010,205.991547 
z"/>
<path fill="#2874B3" opacity="1.000000" stroke="none" 
	d="
M427.889343,359.447021 
	C429.565948,359.394012 431.337341,359.882111 433.127136,359.963348 
	C438.267914,360.196655 438.934387,358.975067 437.730713,354.080872 
	C437.329041,352.447693 438.646057,350.391815 439.177368,348.529175 
	C441.040558,349.121155 443.170349,349.342529 444.678894,350.427551 
	C445.796814,351.231598 446.107269,353.158325 446.956299,354.965759 
	C449.524963,352.798676 450.975525,350.925262 448.587463,347.851898 
	C447.728119,346.746033 447.517853,345.135834 447.005066,343.378510 
	C446.998779,322.531128 446.998779,302.061035 446.998779,280.664642 
	C448.999512,281.686859 450.181396,282.290680 451.735168,282.951324 
	C452.111633,296.806030 452.043182,310.604462 452.147614,324.401581 
	C452.212341,332.954773 452.568604,341.505432 452.737823,350.058319 
	C452.838654,355.155823 444.957397,363.139862 439.761475,363.043457 
	C435.608124,362.966400 430.955505,364.337463 427.889343,359.447021 
z"/>
<path fill="#2177C4" opacity="1.000000" stroke="none" 
	d="
M429.002991,304.000732 
	C429.735199,300.290039 430.467438,296.579346 431.199646,292.868652 
	C431.773254,292.915558 432.346863,292.962463 432.920471,293.009369 
	C435.368896,296.497803 438.039825,299.710632 436.298859,304.827667 
	C435.267609,307.858765 435.682800,311.357330 434.881592,314.501404 
	C434.460052,316.155579 432.821777,317.499695 431.317322,318.989624 
	C430.901703,318.995453 430.877594,318.606232 430.921967,317.979218 
	C430.935547,316.490692 430.904755,315.629150 430.873932,314.767639 
	C430.864380,314.427094 430.854828,314.086578 430.901184,313.062653 
	C430.967896,311.255127 430.978668,310.131012 430.951416,308.686218 
	C430.279114,307.907532 429.644836,307.449493 429.009064,306.617615 
	C429.006012,305.496094 429.004486,304.748413 429.002991,304.000732 
z"/>
<path fill="#2874B3" opacity="1.000000" stroke="none" 
	d="
M430.989441,309.006866 
	C430.978668,310.131012 430.967896,311.255127 430.914948,312.807434 
	C425.721039,311.852539 420.983307,305.940125 420.940491,300.775269 
	C420.905029,296.494751 420.928101,292.213715 420.929993,287.464203 
	C421.623291,288.927979 422.911011,290.869537 422.882050,292.791229 
	C422.810638,297.531860 424.254730,301.216522 428.694580,303.849121 
	C429.004486,304.748413 429.006012,305.496094 429.046997,306.938538 
	C429.720764,308.091187 430.355072,308.549011 430.989441,309.006866 
z"/>
<path fill="#2476B4" opacity="1.000000" stroke="none" 
	d="
M430.941803,323.457611 
	C433.278931,325.295776 437.484985,327.616394 437.466339,329.902557 
	C437.444214,332.613739 433.783722,335.295258 431.331055,337.997253 
	C430.954987,333.311523 430.947876,328.618195 430.941803,323.457611 
z"/>
<path fill="#2874B3" opacity="1.000000" stroke="none" 
	d="
M441.084045,189.638733 
	C435.908478,188.541321 430.264557,182.327042 429.993500,177.390152 
	C433.687439,181.075714 437.385040,185.171783 441.084045,189.638733 
z"/>
<path fill="#3074AB" opacity="1.000000" stroke="none" 
	d="
M369.403931,212.914490 
	C367.125305,207.883789 370.271484,203.004852 376.648621,202.033905 
	C374.589417,205.611862 372.142609,209.170212 369.403931,212.914490 
z"/>
<path fill="#2874B3" opacity="1.000000" stroke="none" 
	d="
M446.363525,206.053101 
	C445.683258,203.215317 445.356476,200.439102 445.060730,197.227463 
	C447.084045,201.594971 449.076324,206.397903 451.065796,211.604568 
	C449.614349,210.043747 448.165680,208.079208 446.363525,206.053101 
z"/>
<path fill="#3074AB" opacity="1.000000" stroke="none" 
	d="
M412.044830,203.356720 
	C417.797211,204.023010 420.027802,207.382599 419.948914,215.717270 
	C417.351196,211.991562 414.784210,207.821411 412.044830,203.356720 
z"/>
<path fill="#2874B3" opacity="1.000000" stroke="none" 
	d="
M430.542542,345.847748 
	C429.810730,347.485962 428.731750,349.212799 427.285828,350.983276 
	C428.011017,349.330078 429.103180,347.633240 430.542542,345.847748 
z"/>
<path fill="#3074AB" opacity="1.000000" stroke="none" 
	d="
M346.640869,189.031876 
	C347.243591,191.643097 346.775604,194.012527 343.243530,194.937485 
	C344.028473,193.041504 345.192017,191.129379 346.640869,189.031876 
z"/>
<path fill="#2874B3" opacity="1.000000" stroke="none" 
	d="
M445.042023,195.673767 
	C443.841125,195.532227 442.613342,195.035217 441.192749,194.269104 
	C441.007599,193.208359 441.015167,192.416702 441.050201,191.225311 
	C442.390106,192.323135 443.702606,193.820709 445.042023,195.673767 
z"/>
<path fill="#2874B3" opacity="1.000000" stroke="none" 
	d="
M426.542786,351.914856 
	C426.929291,353.628326 426.949982,355.461273 426.936157,357.756226 
	C423.842316,356.487152 424.180756,354.357880 426.542786,351.914856 
z"/>
<path fill="#2874B3" opacity="1.000000" stroke="none" 
	d="
M453.009735,233.552368 
	C452.800171,230.858505 452.608215,227.710052 452.702484,224.278824 
	C453.001587,227.029953 453.014465,230.063858 453.009735,233.552368 
z"/>
<path fill="#2874B3" opacity="1.000000" stroke="none" 
	d="
M430.542358,314.867310 
	C430.904755,315.629150 430.935547,316.490692 430.929626,317.784424 
	C430.665558,317.133423 430.438202,316.050201 430.542358,314.867310 
z"/>
<path fill="#3074AB" opacity="1.000000" stroke="none" 
	d="
M377.350739,202.037537 
	C377.608887,201.565948 378.163727,201.079300 378.898560,200.832672 
	C378.601532,201.389267 378.124481,201.705872 377.350739,202.037537 
z"/>
<path fill="#3074AB" opacity="1.000000" stroke="none" 
	d="
M339.710083,201.075104 
	C339.803223,201.476273 339.650848,202.068924 339.245483,202.845825 
	C339.149811,202.442261 339.307190,201.854416 339.710083,201.075104 
z"/>
<path fill="#3074AB" opacity="1.000000" stroke="none" 
	d="
M368.289978,216.012024 
	C368.232208,215.849609 368.390472,215.542877 368.777527,215.104492 
	C368.839539,215.271133 368.672791,215.569427 368.289978,216.012024 
z"/>
<path fill="#35AEDF" opacity="1.000000" stroke="none" 
	d="
M451.987427,382.947723 
	C462.773926,379.047211 467.885620,369.597321 473.331543,360.644653 
	C474.469025,358.774750 473.396393,355.690094 474.084076,353.386658 
	C475.122437,349.908447 476.087585,345.994232 478.362915,343.377563 
	C485.026154,335.714844 492.321472,328.601807 500.040161,321.130646 
	C504.298553,319.996735 506.826019,318.050476 507.012421,313.994781 
	C507.113678,313.678802 507.298431,313.423126 508.159760,313.116302 
	C509.830902,311.656647 510.908936,310.308441 511.987000,308.960266 
	C512.089417,308.652069 512.269531,308.399261 512.973328,307.992798 
	C513.606384,307.504791 513.793518,307.225891 513.980652,306.946960 
	C520.562256,300.185883 528.013794,294.051025 533.466003,286.476959 
	C538.331238,279.718445 540.669373,271.788422 535.885620,262.855469 
	C533.218628,257.875336 530.591736,253.697174 526.022949,250.335648 
	C520.924438,246.584381 515.354797,246.965485 509.608002,246.582718 
	C497.436127,245.772003 491.917999,255.721207 483.976776,261.730896 
	C481.328156,263.735260 479.067535,266.252350 475.721893,269.384888 
	C475.305817,266.614990 474.965240,265.386932 474.961060,264.157776 
	C474.923645,253.167633 475.065186,242.175293 474.882996,231.188095 
	C474.822021,227.509369 476.218750,225.675858 479.714203,224.878769 
	C481.428925,224.487778 483.645172,223.888580 484.511963,222.617920 
	C487.667633,217.991791 492.277466,217.108231 497.277924,216.206451 
	C505.003174,214.813293 512.544739,212.056335 520.497864,215.161163 
	C523.115601,216.183090 524.073425,217.680817 525.413330,220.314117 
	C529.588867,228.520065 531.966980,237.466599 539.131226,244.545792 
	C545.989380,251.322479 553.505127,256.369415 562.130615,259.101501 
	C569.203979,261.341980 569.115601,265.283630 569.242493,271.010132 
	C569.436523,279.766846 568.614258,288.162262 564.778687,296.759583 
	C564.341370,297.878784 564.170654,298.440704 564.000000,299.002594 
	C564.000000,299.002594 564.000000,299.000000 563.653442,299.033569 
	C561.252258,302.106293 559.197510,305.145477 557.142761,308.184631 
	C554.602478,311.131653 552.147583,314.157959 549.502930,317.008118 
	C544.925842,321.940826 540.230957,326.764282 534.948853,331.823792 
	C530.708923,333.015320 528.131104,334.932770 528.022034,339.055542 
	C526.882385,340.280273 525.742737,341.505035 523.945435,342.871643 
	C522.516235,344.009308 521.744629,345.005096 520.973022,346.000916 
	C505.168823,361.666077 489.363068,377.329712 473.561890,392.997894 
	C470.730408,395.805511 467.944580,398.659607 465.091309,401.444702 
	C457.103729,409.241302 449.252136,409.208679 441.796570,401.323273 
	C440.448242,399.897217 439.291046,398.290466 438.017914,396.028809 
	C437.662567,393.849457 437.334900,392.408386 437.007202,390.967346 
	C437.005676,390.541260 437.004120,390.115143 437.236267,389.238159 
	C437.630859,388.491333 437.791779,388.195374 437.952698,387.899414 
	C439.674133,387.235168 441.395508,386.570892 443.876740,385.936462 
	C445.759979,385.624756 446.883392,385.283234 448.006775,384.941711 
	C448.006775,384.941711 448.450653,384.914642 449.008698,384.923492 
	C450.373627,384.270813 451.180542,383.609253 451.987427,382.947723 
z"/>
<path fill="#4CABD1" opacity="1.000000" stroke="none" 
	d="
M557.476379,308.103333 
	C559.197510,305.145477 561.252258,302.106293 563.654663,299.032959 
	C561.938293,302.006500 559.874146,305.014252 557.476379,308.103333 
z"/>
<path fill="#4CABD1" opacity="1.000000" stroke="none" 
	d="
M528.318481,338.905243 
	C528.131104,334.932770 530.708923,333.015320 534.687256,332.024597 
	C532.913147,334.275055 530.764038,336.514984 528.318481,338.905243 
z"/>
<path fill="#4CABD1" opacity="1.000000" stroke="none" 
	d="
M506.711548,314.135315 
	C506.826019,318.050476 504.298553,319.996735 500.339478,320.980591 
	C502.115387,318.740845 504.263031,316.508362 506.711548,314.135315 
z"/>
<path fill="#4CABD1" opacity="1.000000" stroke="none" 
	d="
M511.699951,309.103088 
	C510.908936,310.308441 509.830902,311.656647 508.374817,313.010193 
	C509.135437,311.758972 510.274170,310.502441 511.699951,309.103088 
z"/>
<path fill="#4CABD1" opacity="1.000000" stroke="none" 
	d="
M521.265137,345.886047 
	C521.744629,345.005096 522.516235,344.009308 523.663513,343.013641 
	C523.211914,343.932922 522.384583,344.852051 521.265137,345.886047 
z"/>
<path fill="#4CABD1" opacity="1.000000" stroke="none" 
	d="
M436.989288,391.360474 
	C437.334900,392.408386 437.662567,393.849457 437.970764,395.687805 
	C437.624634,394.641296 437.298004,393.197479 436.989288,391.360474 
z"/>
<path fill="#4CABD1" opacity="1.000000" stroke="none" 
	d="
M451.635712,382.956787 
	C451.180542,383.609253 450.373627,384.270813 449.231018,384.928650 
	C449.691498,384.271942 450.487732,383.618896 451.635712,382.956787 
z"/>
<path fill="#4CABD1" opacity="1.000000" stroke="none" 
	d="
M447.635681,384.936127 
	C446.883392,385.283234 445.759979,385.624756 444.255188,385.929749 
	C445.004089,385.572296 446.134369,385.251404 447.635681,384.936127 
z"/>
<path fill="#4CABD1" opacity="1.000000" stroke="none" 
	d="
M564.253235,298.837677 
	C564.170654,298.440704 564.341370,297.878784 564.758850,297.144043 
	C564.839294,297.538361 564.672913,298.105560 564.253235,298.837677 
z"/>
<path fill="#4CABD1" opacity="1.000000" stroke="none" 
	d="
M513.756287,307.062134 
	C513.793518,307.225891 513.606384,307.504791 513.182007,307.883301 
	C513.140442,307.714355 513.336182,307.445831 513.756287,307.062134 
z"/>
<path fill="#4CABD1" opacity="1.000000" stroke="none" 
	d="
M437.731750,388.031250 
	C437.791779,388.195374 437.630859,388.491333 437.248657,388.918823 
	C437.188477,388.754578 437.349609,388.458832 437.731750,388.031250 
z"/>
<path fill="#2476BA" opacity="1.000000" stroke="none" 
	d="
M566.850586,364.090240 
	C557.886108,364.068909 548.921570,364.047546 539.487000,363.606812 
	C538.996399,362.092865 538.975830,360.998322 538.955322,359.903748 
	C541.176575,357.959442 543.418396,356.037964 545.611877,354.062805 
	C547.072083,352.747986 548.523621,351.413666 549.873169,349.987762 
	C552.804504,346.890442 555.649658,343.711548 558.570190,340.603729 
	C559.477905,339.637817 560.590637,338.862030 561.479675,337.881561 
	C566.479797,332.367249 571.106628,331.590271 577.564880,334.920380 
	C584.413513,338.451813 591.431396,341.659027 598.225647,345.288177 
	C599.629089,346.037842 600.258301,348.128479 601.447571,349.412872 
	C603.240417,351.349213 605.033081,353.365814 607.147949,354.906006 
	C610.711792,357.501465 611.084167,360.379730 608.722534,363.869385 
	C600.948120,375.357361 599.739075,388.291260 601.619141,401.417206 
	C602.451843,407.230713 605.838074,412.658722 607.861633,418.334320 
	C608.415466,419.887878 609.007446,422.227051 608.269714,423.319611 
	C599.941650,435.652832 589.134460,444.579041 573.097900,447.049500 
	C563.529053,444.195679 555.069519,447.630066 546.491455,448.172058 
	C545.972229,448.204895 545.518005,449.267883 545.033569,449.851532 
	C512.568481,449.871674 480.098663,450.186951 447.642151,449.668823 
	C440.959991,449.562134 433.733459,450.442230 427.315247,446.322266 
	C419.491211,441.299805 418.462219,428.886047 426.022766,423.555725 
	C427.178101,422.741211 429.857483,422.716736 431.031677,423.510620 
	C444.309204,432.487396 458.337372,430.097260 472.460663,426.563965 
	C473.518219,426.299377 474.829956,425.595123 475.308197,424.709106 
	C478.168823,419.409180 482.858337,418.059509 488.403290,417.937866 
	C498.185272,417.723236 507.961914,417.084106 517.742493,417.044373 
	C525.189514,417.014099 532.640564,417.930939 540.087280,417.895355 
	C549.701843,417.849396 559.313843,417.274048 569.821411,416.954224 
	C577.854736,416.936340 579.658875,415.549744 579.939453,409.892914 
	C587.782349,402.728821 587.300293,393.315186 587.311157,383.414185 
	C588.218811,380.917786 588.768311,378.945099 589.317871,376.972412 
	C587.523865,376.691498 585.729919,376.410583 583.935913,376.129669 
	C582.376099,374.325317 580.816284,372.520996 579.088989,370.062683 
	C576.394409,364.239410 571.876404,363.588501 566.850586,364.090240 
z"/>
<path fill="#3074AB" opacity="1.000000" stroke="none" 
	d="
M545.491211,449.890015 
	C545.518005,449.267883 545.972229,448.204895 546.491455,448.172058 
	C555.069519,447.630066 563.529053,444.195679 572.692749,447.049011 
	C572.144958,447.718811 571.183044,448.864532 570.160034,448.921967 
	C562.096191,449.374725 554.020752,449.619598 545.491211,449.890015 
z"/>
<path fill="#3074AB" opacity="1.000000" stroke="none" 
	d="
M579.633911,410.052490 
	C579.658875,415.549744 577.854736,416.936340 570.280029,416.954224 
	C573.005615,414.688507 576.166992,412.450256 579.633911,410.052490 
z"/>
<path fill="#3074AB" opacity="1.000000" stroke="none" 
	d="
M584.088623,376.432251 
	C585.729919,376.410583 587.523865,376.691498 589.317871,376.972412 
	C588.768311,378.945099 588.218811,380.917786 587.306030,382.947815 
	C586.042236,380.915070 585.141724,378.824951 584.088623,376.432251 
z"/>
<path fill="#3074AB" opacity="1.000000" stroke="none" 
	d="
M567.101257,364.348267 
	C571.876404,363.588501 576.394409,364.239410 578.928223,369.779602 
	C575.073914,368.302399 571.212891,366.454346 567.101257,364.348267 
z"/>
<path fill="#3074AB" opacity="1.000000" stroke="none" 
	d="
M538.658203,360.071228 
	C538.975830,360.998322 538.996399,362.092865 539.029175,363.596161 
	C538.159363,363.769104 537.277161,363.533325 536.395020,363.297516 
	C537.050415,362.277924 537.705750,361.258301 538.658203,360.071228 
z"/>
<path fill="#35AEDF" opacity="1.000000" stroke="none" 
	d="
M596.698669,602.950317 
	C592.516907,604.431274 588.799683,606.182251 584.891113,607.196350 
	C575.983459,609.507202 568.586060,606.834351 560.658997,601.907104 
	C553.933105,597.726379 551.529846,591.379395 548.230225,585.625671 
	C546.100403,581.911926 546.114197,575.925659 547.347351,571.575867 
	C549.108704,565.362793 551.529297,558.152405 556.116150,554.231140 
	C561.571228,549.567688 568.342590,545.247925 576.526245,544.858093 
	C583.358521,544.532593 588.614319,547.336609 594.587097,550.174133 
	C601.527649,553.471436 604.231262,559.399475 607.540833,564.767944 
	C612.284302,572.462097 610.667664,580.981689 607.055725,589.034729 
	C606.196167,590.951233 606.039429,593.328796 604.803101,594.898743 
	C602.523071,597.793823 599.682983,600.247803 596.698669,602.950317 
z"/>
<path fill="#3AAFDE" opacity="1.000000" stroke="none" 
	d="
M611.302246,215.916718 
	C606.289124,231.383148 595.871826,240.078003 580.162903,240.843216 
	C567.893311,241.440887 557.342224,236.649338 550.470825,225.833862 
	C542.431580,213.180176 543.560547,196.591568 552.955261,185.412186 
	C562.129883,174.494736 578.663818,170.100327 592.073547,176.370956 
	C605.907410,182.839905 615.233215,196.123871 611.302246,215.916718 
z"/>
<path fill="#2377BE" opacity="1.000000" stroke="none" 
	d="
M278.391296,344.930054 
	C279.749725,344.496613 280.664398,343.806946 281.592529,343.788361 
	C283.453491,343.751068 285.440430,343.773041 287.123962,344.422363 
	C287.728577,344.655579 288.224365,347.294983 287.694641,347.909760 
	C286.537048,349.253113 284.736237,350.761505 283.117432,350.858826 
	C277.305969,351.208160 271.460876,350.998932 265.628510,350.999847 
	C261.629150,351.000488 257.626770,351.088715 253.632050,350.952667 
	C252.151932,350.902252 250.689835,350.323273 249.219513,349.985321 
	C249.103607,349.284851 248.987686,348.584381 248.871765,347.883911 
	C251.733582,346.923187 254.555450,345.310944 257.465240,345.132538 
	C264.272308,344.715149 271.121490,344.985474 278.391296,344.930054 
z"/>
<path fill="#2874B3" opacity="1.000000" stroke="none" 
	d="
M428.925629,286.722046 
	C428.976685,288.866791 428.976685,290.631287 428.976685,292.395752 
	C428.363342,292.510681 427.750031,292.625610 427.136688,292.740509 
	C426.809326,291.151978 426.203949,289.546967 426.296417,287.983246 
	C426.331635,287.387329 427.967926,286.886108 428.925629,286.722046 
z"/>
<path fill="#2477BA" opacity="1.000000" stroke="none" 
	d="
M430.951385,308.686218 
	C430.355072,308.549011 429.720764,308.091187 429.048523,307.312408 
	C429.644836,307.449493 430.279114,307.907532 430.951385,308.686218 
z"/>
</svg>